%TF.GenerationSoftware,KiCad,Pcbnew,6.0.11-2627ca5db0~126~ubuntu22.04.1*%
%TF.CreationDate,2024-01-14T00:56:42+01:00*%
%TF.ProjectId,sda_trie_kbd,7364615f-7472-4696-955f-6b62642e6b69,rev?*%
%TF.SameCoordinates,PX2f34f60PY1c9b1e8*%
%TF.FileFunction,Legend,Bot*%
%TF.FilePolarity,Positive*%
%FSLAX46Y46*%
G04 Gerber Fmt 4.6, Leading zero omitted, Abs format (unit mm)*
G04 Created by KiCad (PCBNEW 6.0.11-2627ca5db0~126~ubuntu22.04.1) date 2024-01-14 00:56:42*
%MOMM*%
%LPD*%
G01*
G04 APERTURE LIST*
%ADD10C,0.150000*%
%ADD11C,0.120000*%
G04 APERTURE END LIST*
D10*
X57011904Y-19706884D02*
X57011904Y-20516408D01*
X56964285Y-20611646D01*
X56916666Y-20659265D01*
X56821428Y-20706884D01*
X56630952Y-20706884D01*
X56535714Y-20659265D01*
X56488095Y-20611646D01*
X56440476Y-20516408D01*
X56440476Y-19706884D01*
X56011904Y-19802123D02*
X55964285Y-19754504D01*
X55869047Y-19706884D01*
X55630952Y-19706884D01*
X55535714Y-19754504D01*
X55488095Y-19802123D01*
X55440476Y-19897361D01*
X55440476Y-19992599D01*
X55488095Y-20135456D01*
X56059523Y-20706884D01*
X55440476Y-20706884D01*
X44252733Y-2107084D02*
X44252733Y-2821370D01*
X44300352Y-2964227D01*
X44395590Y-3059465D01*
X44538447Y-3107084D01*
X44633685Y-3107084D01*
X43252733Y-3107084D02*
X43824161Y-3107084D01*
X43538447Y-3107084D02*
X43538447Y-2107084D01*
X43633685Y-2249942D01*
X43728923Y-2345180D01*
X43824161Y-2392799D01*
X3511904Y-19456884D02*
X3511904Y-20266408D01*
X3464285Y-20361646D01*
X3416666Y-20409265D01*
X3321428Y-20456884D01*
X3130952Y-20456884D01*
X3035714Y-20409265D01*
X2988095Y-20361646D01*
X2940476Y-20266408D01*
X2940476Y-19456884D01*
X1940476Y-20456884D02*
X2511904Y-20456884D01*
X2226190Y-20456884D02*
X2226190Y-19456884D01*
X2321428Y-19599742D01*
X2416666Y-19694980D01*
X2511904Y-19742599D01*
D11*
X57660000Y-17104504D02*
X57660000Y-18779504D01*
X54540000Y-17104504D02*
X54540000Y-16454504D01*
X57660000Y-17104504D02*
X57660000Y-16454504D01*
X54540000Y-17104504D02*
X54540000Y-17754504D01*
X36704400Y-7794704D02*
X36594400Y-7794704D01*
X51244400Y-7794704D02*
X51244400Y-8394704D01*
X48369400Y-5204704D02*
X48169400Y-5604704D01*
X36594400Y-7794704D02*
X36594400Y-8394704D01*
X47969400Y-5204704D02*
X48369400Y-5204704D01*
X48169400Y-5604704D02*
X47969400Y-5204704D01*
X51134400Y-7794704D02*
X51244400Y-7794704D01*
X4260000Y-17204504D02*
X4260000Y-16554504D01*
X4260000Y-17204504D02*
X4260000Y-18879504D01*
X1140000Y-17204504D02*
X1140000Y-17854504D01*
X1140000Y-17204504D02*
X1140000Y-16554504D01*
M02*
