%TF.GenerationSoftware,KiCad,Pcbnew,6.0.11-2627ca5db0~126~ubuntu22.04.1*%
%TF.CreationDate,2024-01-14T00:56:42+01:00*%
%TF.ProjectId,sda_trie_kbd,7364615f-7472-4696-955f-6b62642e6b69,rev?*%
%TF.SameCoordinates,PX2f34f60PY1c9b1e8*%
%TF.FileFunction,Paste,Top*%
%TF.FilePolarity,Positive*%
%FSLAX46Y46*%
G04 Gerber Fmt 4.6, Leading zero omitted, Abs format (unit mm)*
G04 Created by KiCad (PCBNEW 6.0.11-2627ca5db0~126~ubuntu22.04.1) date 2024-01-14 00:56:42*
%MOMM*%
%LPD*%
G01*
G04 APERTURE LIST*
G04 APERTURE END LIST*
G36*
X53906604Y-17713588D02*
G01*
X53830088Y-18011596D01*
X53716826Y-18297663D01*
X53568603Y-18567280D01*
X53387757Y-18816193D01*
X53177140Y-19040477D01*
X52940074Y-19236596D01*
X52680297Y-19401455D01*
X52401905Y-19532456D01*
X52109290Y-19627533D01*
X51807066Y-19685185D01*
X51500000Y-19704504D01*
X51192934Y-19685185D01*
X50890710Y-19627533D01*
X50598095Y-19532456D01*
X50319703Y-19401455D01*
X50059926Y-19236596D01*
X49822860Y-19040477D01*
X49612243Y-18816193D01*
X49431397Y-18567280D01*
X49283174Y-18297663D01*
X49169912Y-18011596D01*
X49093396Y-17713588D01*
X49054835Y-17408341D01*
X49054835Y-17100667D01*
X49093396Y-16795420D01*
X49169912Y-16497412D01*
X49283174Y-16211345D01*
X49431397Y-15941728D01*
X49612243Y-15692815D01*
X49822860Y-15468531D01*
X50059926Y-15272412D01*
X50319703Y-15107553D01*
X50598095Y-14976552D01*
X50890710Y-14881475D01*
X51192934Y-14823823D01*
X51500000Y-14804504D01*
X51545938Y-14807394D01*
X51545938Y-15500198D01*
X51286131Y-15512678D01*
X51031022Y-15563422D01*
X50786215Y-15651317D01*
X50557089Y-15774430D01*
X50348677Y-15930059D01*
X50165558Y-16114783D01*
X50011754Y-16324545D01*
X49890645Y-16554736D01*
X49804890Y-16800301D01*
X49756374Y-17055843D01*
X49746162Y-17315749D01*
X49774479Y-17574310D01*
X49840703Y-17825846D01*
X49943378Y-18064830D01*
X50080250Y-18286012D01*
X50248312Y-18484535D01*
X50443871Y-18656035D01*
X50662631Y-18796746D01*
X50899786Y-18903577D01*
X51150128Y-18974181D01*
X51408155Y-19007006D01*
X51500000Y-19009411D01*
X51759392Y-18990135D01*
X52013085Y-18932730D01*
X52255507Y-18838457D01*
X52481332Y-18709388D01*
X52685598Y-18548357D01*
X52863819Y-18358903D01*
X53012079Y-18145187D01*
X53127121Y-17911904D01*
X53206419Y-17664179D01*
X53248229Y-17407454D01*
X53251634Y-17147369D01*
X53216558Y-16889638D01*
X53143773Y-16639923D01*
X53034876Y-16403708D01*
X52892261Y-16186184D01*
X52719061Y-15992130D01*
X52519080Y-15825807D01*
X52296711Y-15690870D01*
X52056840Y-15590284D01*
X51804736Y-15526258D01*
X51545938Y-15500198D01*
X51545938Y-14807394D01*
X51807066Y-14823823D01*
X52109290Y-14881475D01*
X52401905Y-14976552D01*
X52680297Y-15107553D01*
X52940074Y-15272412D01*
X53177140Y-15468531D01*
X53387757Y-15692815D01*
X53568603Y-15941728D01*
X53716826Y-16211345D01*
X53830088Y-16497412D01*
X53906604Y-16795420D01*
X53945165Y-17100667D01*
X53945165Y-17408341D01*
X53906604Y-17713588D01*
G37*
G36*
X42906604Y-24213588D02*
G01*
X42830088Y-24511596D01*
X42716826Y-24797663D01*
X42568603Y-25067280D01*
X42387757Y-25316193D01*
X42177140Y-25540477D01*
X41940074Y-25736596D01*
X41680297Y-25901455D01*
X41401905Y-26032456D01*
X41109290Y-26127533D01*
X40807066Y-26185185D01*
X40500000Y-26204504D01*
X40192934Y-26185185D01*
X39890710Y-26127533D01*
X39598095Y-26032456D01*
X39319703Y-25901455D01*
X39059926Y-25736596D01*
X38822860Y-25540477D01*
X38612243Y-25316193D01*
X38431397Y-25067280D01*
X38283174Y-24797663D01*
X38169912Y-24511596D01*
X38093396Y-24213588D01*
X38054835Y-23908341D01*
X38054835Y-23600667D01*
X38093396Y-23295420D01*
X38169912Y-22997412D01*
X38283174Y-22711345D01*
X38431397Y-22441728D01*
X38612243Y-22192815D01*
X38822860Y-21968531D01*
X39059926Y-21772412D01*
X39319703Y-21607553D01*
X39598095Y-21476552D01*
X39890710Y-21381475D01*
X40192934Y-21323823D01*
X40500000Y-21304504D01*
X40545938Y-21307394D01*
X40545938Y-22000198D01*
X40286131Y-22012678D01*
X40031022Y-22063422D01*
X39786215Y-22151317D01*
X39557089Y-22274430D01*
X39348677Y-22430059D01*
X39165558Y-22614783D01*
X39011754Y-22824545D01*
X38890645Y-23054736D01*
X38804890Y-23300301D01*
X38756374Y-23555843D01*
X38746162Y-23815749D01*
X38774479Y-24074310D01*
X38840703Y-24325846D01*
X38943378Y-24564830D01*
X39080250Y-24786012D01*
X39248312Y-24984535D01*
X39443871Y-25156035D01*
X39662631Y-25296746D01*
X39899786Y-25403577D01*
X40150128Y-25474181D01*
X40408155Y-25507006D01*
X40500000Y-25509411D01*
X40759392Y-25490135D01*
X41013085Y-25432730D01*
X41255507Y-25338457D01*
X41481332Y-25209388D01*
X41685598Y-25048357D01*
X41863819Y-24858903D01*
X42012079Y-24645187D01*
X42127121Y-24411904D01*
X42206419Y-24164179D01*
X42248229Y-23907454D01*
X42251634Y-23647369D01*
X42216558Y-23389638D01*
X42143773Y-23139923D01*
X42034876Y-22903708D01*
X41892261Y-22686184D01*
X41719061Y-22492130D01*
X41519080Y-22325807D01*
X41296711Y-22190870D01*
X41056840Y-22090284D01*
X40804736Y-22026258D01*
X40545938Y-22000198D01*
X40545938Y-21307394D01*
X40807066Y-21323823D01*
X41109290Y-21381475D01*
X41401905Y-21476552D01*
X41680297Y-21607553D01*
X41940074Y-21772412D01*
X42177140Y-21968531D01*
X42387757Y-22192815D01*
X42568603Y-22441728D01*
X42716826Y-22711345D01*
X42830088Y-22997412D01*
X42906604Y-23295420D01*
X42945165Y-23600667D01*
X42945165Y-23908341D01*
X42906604Y-24213588D01*
G37*
G36*
X31906604Y-36713588D02*
G01*
X31830088Y-37011596D01*
X31716826Y-37297663D01*
X31568603Y-37567280D01*
X31387757Y-37816193D01*
X31177140Y-38040477D01*
X30940074Y-38236596D01*
X30680297Y-38401455D01*
X30401905Y-38532456D01*
X30109290Y-38627533D01*
X29807066Y-38685185D01*
X29500000Y-38704504D01*
X29192934Y-38685185D01*
X28890710Y-38627533D01*
X28598095Y-38532456D01*
X28319703Y-38401455D01*
X28059926Y-38236596D01*
X27822860Y-38040477D01*
X27612243Y-37816193D01*
X27431397Y-37567280D01*
X27283174Y-37297663D01*
X27169912Y-37011596D01*
X27093396Y-36713588D01*
X27054835Y-36408341D01*
X27054835Y-36100667D01*
X27093396Y-35795420D01*
X27169912Y-35497412D01*
X27283174Y-35211345D01*
X27431397Y-34941728D01*
X27612243Y-34692815D01*
X27822860Y-34468531D01*
X28059926Y-34272412D01*
X28319703Y-34107553D01*
X28598095Y-33976552D01*
X28890710Y-33881475D01*
X29192934Y-33823823D01*
X29500000Y-33804504D01*
X29545938Y-33807394D01*
X29545938Y-34500198D01*
X29286131Y-34512678D01*
X29031022Y-34563422D01*
X28786215Y-34651317D01*
X28557089Y-34774430D01*
X28348677Y-34930059D01*
X28165558Y-35114783D01*
X28011754Y-35324545D01*
X27890645Y-35554736D01*
X27804890Y-35800301D01*
X27756374Y-36055843D01*
X27746162Y-36315749D01*
X27774479Y-36574310D01*
X27840703Y-36825846D01*
X27943378Y-37064830D01*
X28080250Y-37286012D01*
X28248312Y-37484535D01*
X28443871Y-37656035D01*
X28662631Y-37796746D01*
X28899786Y-37903577D01*
X29150128Y-37974181D01*
X29408155Y-38007006D01*
X29500000Y-38009411D01*
X29759392Y-37990135D01*
X30013085Y-37932730D01*
X30255507Y-37838457D01*
X30481332Y-37709388D01*
X30685598Y-37548357D01*
X30863819Y-37358903D01*
X31012079Y-37145187D01*
X31127121Y-36911904D01*
X31206419Y-36664179D01*
X31248229Y-36407454D01*
X31251634Y-36147369D01*
X31216558Y-35889638D01*
X31143773Y-35639923D01*
X31034876Y-35403708D01*
X30892261Y-35186184D01*
X30719061Y-34992130D01*
X30519080Y-34825807D01*
X30296711Y-34690870D01*
X30056840Y-34590284D01*
X29804736Y-34526258D01*
X29545938Y-34500198D01*
X29545938Y-33807394D01*
X29807066Y-33823823D01*
X30109290Y-33881475D01*
X30401905Y-33976552D01*
X30680297Y-34107553D01*
X30940074Y-34272412D01*
X31177140Y-34468531D01*
X31387757Y-34692815D01*
X31568603Y-34941728D01*
X31716826Y-35211345D01*
X31830088Y-35497412D01*
X31906604Y-35795420D01*
X31945165Y-36100667D01*
X31945165Y-36408341D01*
X31906604Y-36713588D01*
G37*
G36*
X15406604Y-17713588D02*
G01*
X15330088Y-18011596D01*
X15216826Y-18297663D01*
X15068603Y-18567280D01*
X14887757Y-18816193D01*
X14677140Y-19040477D01*
X14440074Y-19236596D01*
X14180297Y-19401455D01*
X13901905Y-19532456D01*
X13609290Y-19627533D01*
X13307066Y-19685185D01*
X13000000Y-19704504D01*
X12692934Y-19685185D01*
X12390710Y-19627533D01*
X12098095Y-19532456D01*
X11819703Y-19401455D01*
X11559926Y-19236596D01*
X11322860Y-19040477D01*
X11112243Y-18816193D01*
X10931397Y-18567280D01*
X10783174Y-18297663D01*
X10669912Y-18011596D01*
X10593396Y-17713588D01*
X10554835Y-17408341D01*
X10554835Y-17100667D01*
X10593396Y-16795420D01*
X10669912Y-16497412D01*
X10783174Y-16211345D01*
X10931397Y-15941728D01*
X11112243Y-15692815D01*
X11322860Y-15468531D01*
X11559926Y-15272412D01*
X11819703Y-15107553D01*
X12098095Y-14976552D01*
X12390710Y-14881475D01*
X12692934Y-14823823D01*
X13000000Y-14804504D01*
X13045938Y-14807394D01*
X13045938Y-15500198D01*
X12786131Y-15512678D01*
X12531022Y-15563422D01*
X12286215Y-15651317D01*
X12057089Y-15774430D01*
X11848677Y-15930059D01*
X11665558Y-16114783D01*
X11511754Y-16324545D01*
X11390645Y-16554736D01*
X11304890Y-16800301D01*
X11256374Y-17055843D01*
X11246162Y-17315749D01*
X11274479Y-17574310D01*
X11340703Y-17825846D01*
X11443378Y-18064830D01*
X11580250Y-18286012D01*
X11748312Y-18484535D01*
X11943871Y-18656035D01*
X12162631Y-18796746D01*
X12399786Y-18903577D01*
X12650128Y-18974181D01*
X12908155Y-19007006D01*
X13000000Y-19009411D01*
X13259392Y-18990135D01*
X13513085Y-18932730D01*
X13755507Y-18838457D01*
X13981332Y-18709388D01*
X14185598Y-18548357D01*
X14363819Y-18358903D01*
X14512079Y-18145187D01*
X14627121Y-17911904D01*
X14706419Y-17664179D01*
X14748229Y-17407454D01*
X14751634Y-17147369D01*
X14716558Y-16889638D01*
X14643773Y-16639923D01*
X14534876Y-16403708D01*
X14392261Y-16186184D01*
X14219061Y-15992130D01*
X14019080Y-15825807D01*
X13796711Y-15690870D01*
X13556840Y-15590284D01*
X13304736Y-15526258D01*
X13045938Y-15500198D01*
X13045938Y-14807394D01*
X13307066Y-14823823D01*
X13609290Y-14881475D01*
X13901905Y-14976552D01*
X14180297Y-15107553D01*
X14440074Y-15272412D01*
X14677140Y-15468531D01*
X14887757Y-15692815D01*
X15068603Y-15941728D01*
X15216826Y-16211345D01*
X15330088Y-16497412D01*
X15406604Y-16795420D01*
X15445165Y-17100667D01*
X15445165Y-17408341D01*
X15406604Y-17713588D01*
G37*
G36*
X53906604Y-36713588D02*
G01*
X53830088Y-37011596D01*
X53716826Y-37297663D01*
X53568603Y-37567280D01*
X53387757Y-37816193D01*
X53177140Y-38040477D01*
X52940074Y-38236596D01*
X52680297Y-38401455D01*
X52401905Y-38532456D01*
X52109290Y-38627533D01*
X51807066Y-38685185D01*
X51500000Y-38704504D01*
X51192934Y-38685185D01*
X50890710Y-38627533D01*
X50598095Y-38532456D01*
X50319703Y-38401455D01*
X50059926Y-38236596D01*
X49822860Y-38040477D01*
X49612243Y-37816193D01*
X49431397Y-37567280D01*
X49283174Y-37297663D01*
X49169912Y-37011596D01*
X49093396Y-36713588D01*
X49054835Y-36408341D01*
X49054835Y-36100667D01*
X49093396Y-35795420D01*
X49169912Y-35497412D01*
X49283174Y-35211345D01*
X49431397Y-34941728D01*
X49612243Y-34692815D01*
X49822860Y-34468531D01*
X50059926Y-34272412D01*
X50319703Y-34107553D01*
X50598095Y-33976552D01*
X50890710Y-33881475D01*
X51192934Y-33823823D01*
X51500000Y-33804504D01*
X51545938Y-33807394D01*
X51545938Y-34500198D01*
X51286131Y-34512678D01*
X51031022Y-34563422D01*
X50786215Y-34651317D01*
X50557089Y-34774430D01*
X50348677Y-34930059D01*
X50165558Y-35114783D01*
X50011754Y-35324545D01*
X49890645Y-35554736D01*
X49804890Y-35800301D01*
X49756374Y-36055843D01*
X49746162Y-36315749D01*
X49774479Y-36574310D01*
X49840703Y-36825846D01*
X49943378Y-37064830D01*
X50080250Y-37286012D01*
X50248312Y-37484535D01*
X50443871Y-37656035D01*
X50662631Y-37796746D01*
X50899786Y-37903577D01*
X51150128Y-37974181D01*
X51408155Y-38007006D01*
X51500000Y-38009411D01*
X51759392Y-37990135D01*
X52013085Y-37932730D01*
X52255507Y-37838457D01*
X52481332Y-37709388D01*
X52685598Y-37548357D01*
X52863819Y-37358903D01*
X53012079Y-37145187D01*
X53127121Y-36911904D01*
X53206419Y-36664179D01*
X53248229Y-36407454D01*
X53251634Y-36147369D01*
X53216558Y-35889638D01*
X53143773Y-35639923D01*
X53034876Y-35403708D01*
X52892261Y-35186184D01*
X52719061Y-34992130D01*
X52519080Y-34825807D01*
X52296711Y-34690870D01*
X52056840Y-34590284D01*
X51804736Y-34526258D01*
X51545938Y-34500198D01*
X51545938Y-33807394D01*
X51807066Y-33823823D01*
X52109290Y-33881475D01*
X52401905Y-33976552D01*
X52680297Y-34107553D01*
X52940074Y-34272412D01*
X53177140Y-34468531D01*
X53387757Y-34692815D01*
X53568603Y-34941728D01*
X53716826Y-35211345D01*
X53830088Y-35497412D01*
X53906604Y-35795420D01*
X53945165Y-36100667D01*
X53945165Y-36408341D01*
X53906604Y-36713588D01*
G37*
G36*
X33945809Y-10713588D02*
G01*
X33869293Y-11011596D01*
X33756031Y-11297663D01*
X33607808Y-11567280D01*
X33426962Y-11816193D01*
X33216345Y-12040477D01*
X32979279Y-12236596D01*
X32719502Y-12401455D01*
X32441110Y-12532456D01*
X32148495Y-12627533D01*
X31846271Y-12685185D01*
X31539205Y-12704504D01*
X31232139Y-12685185D01*
X30929915Y-12627533D01*
X30637300Y-12532456D01*
X30358908Y-12401455D01*
X30099131Y-12236596D01*
X29862065Y-12040477D01*
X29651448Y-11816193D01*
X29470602Y-11567280D01*
X29322379Y-11297663D01*
X29209117Y-11011596D01*
X29132601Y-10713588D01*
X29094040Y-10408341D01*
X29094040Y-10100667D01*
X29132601Y-9795420D01*
X29209117Y-9497412D01*
X29322379Y-9211345D01*
X29470602Y-8941728D01*
X29651448Y-8692815D01*
X29862065Y-8468531D01*
X30099131Y-8272412D01*
X30358908Y-8107553D01*
X30637300Y-7976552D01*
X30929915Y-7881475D01*
X31232139Y-7823823D01*
X31539205Y-7804504D01*
X31585143Y-7807394D01*
X31585143Y-8500198D01*
X31325336Y-8512678D01*
X31070227Y-8563422D01*
X30825420Y-8651317D01*
X30596294Y-8774430D01*
X30387882Y-8930059D01*
X30204763Y-9114783D01*
X30050959Y-9324545D01*
X29929850Y-9554736D01*
X29844095Y-9800301D01*
X29795579Y-10055843D01*
X29785367Y-10315749D01*
X29813684Y-10574310D01*
X29879908Y-10825846D01*
X29982583Y-11064830D01*
X30119455Y-11286012D01*
X30287517Y-11484535D01*
X30483076Y-11656035D01*
X30701836Y-11796746D01*
X30938991Y-11903577D01*
X31189333Y-11974181D01*
X31447360Y-12007006D01*
X31539205Y-12009411D01*
X31798597Y-11990135D01*
X32052290Y-11932730D01*
X32294712Y-11838457D01*
X32520537Y-11709388D01*
X32724803Y-11548357D01*
X32903024Y-11358903D01*
X33051284Y-11145187D01*
X33166326Y-10911904D01*
X33245624Y-10664179D01*
X33287434Y-10407454D01*
X33290839Y-10147369D01*
X33255763Y-9889638D01*
X33182978Y-9639923D01*
X33074081Y-9403708D01*
X32931466Y-9186184D01*
X32758266Y-8992130D01*
X32558285Y-8825807D01*
X32335916Y-8690870D01*
X32096045Y-8590284D01*
X31843941Y-8526258D01*
X31585143Y-8500198D01*
X31585143Y-7807394D01*
X31846271Y-7823823D01*
X32148495Y-7881475D01*
X32441110Y-7976552D01*
X32719502Y-8107553D01*
X32979279Y-8272412D01*
X33216345Y-8468531D01*
X33426962Y-8692815D01*
X33607808Y-8941728D01*
X33756031Y-9211345D01*
X33869293Y-9497412D01*
X33945809Y-9795420D01*
X33984370Y-10100667D01*
X33984370Y-10408341D01*
X33945809Y-10713588D01*
G37*
G36*
X55906604Y-10713588D02*
G01*
X55830088Y-11011596D01*
X55716826Y-11297663D01*
X55568603Y-11567280D01*
X55387757Y-11816193D01*
X55177140Y-12040477D01*
X54940074Y-12236596D01*
X54680297Y-12401455D01*
X54401905Y-12532456D01*
X54109290Y-12627533D01*
X53807066Y-12685185D01*
X53500000Y-12704504D01*
X53192934Y-12685185D01*
X52890710Y-12627533D01*
X52598095Y-12532456D01*
X52319703Y-12401455D01*
X52059926Y-12236596D01*
X51822860Y-12040477D01*
X51612243Y-11816193D01*
X51431397Y-11567280D01*
X51283174Y-11297663D01*
X51169912Y-11011596D01*
X51093396Y-10713588D01*
X51054835Y-10408341D01*
X51054835Y-10100667D01*
X51093396Y-9795420D01*
X51169912Y-9497412D01*
X51283174Y-9211345D01*
X51431397Y-8941728D01*
X51612243Y-8692815D01*
X51822860Y-8468531D01*
X52059926Y-8272412D01*
X52319703Y-8107553D01*
X52598095Y-7976552D01*
X52890710Y-7881475D01*
X53192934Y-7823823D01*
X53500000Y-7804504D01*
X53545938Y-7807394D01*
X53545938Y-8500198D01*
X53286131Y-8512678D01*
X53031022Y-8563422D01*
X52786215Y-8651317D01*
X52557089Y-8774430D01*
X52348677Y-8930059D01*
X52165558Y-9114783D01*
X52011754Y-9324545D01*
X51890645Y-9554736D01*
X51804890Y-9800301D01*
X51756374Y-10055843D01*
X51746162Y-10315749D01*
X51774479Y-10574310D01*
X51840703Y-10825846D01*
X51943378Y-11064830D01*
X52080250Y-11286012D01*
X52248312Y-11484535D01*
X52443871Y-11656035D01*
X52662631Y-11796746D01*
X52899786Y-11903577D01*
X53150128Y-11974181D01*
X53408155Y-12007006D01*
X53500000Y-12009411D01*
X53759392Y-11990135D01*
X54013085Y-11932730D01*
X54255507Y-11838457D01*
X54481332Y-11709388D01*
X54685598Y-11548357D01*
X54863819Y-11358903D01*
X55012079Y-11145187D01*
X55127121Y-10911904D01*
X55206419Y-10664179D01*
X55248229Y-10407454D01*
X55251634Y-10147369D01*
X55216558Y-9889638D01*
X55143773Y-9639923D01*
X55034876Y-9403708D01*
X54892261Y-9186184D01*
X54719061Y-8992130D01*
X54519080Y-8825807D01*
X54296711Y-8690870D01*
X54056840Y-8590284D01*
X53804736Y-8526258D01*
X53545938Y-8500198D01*
X53545938Y-7807394D01*
X53807066Y-7823823D01*
X54109290Y-7881475D01*
X54401905Y-7976552D01*
X54680297Y-8107553D01*
X54940074Y-8272412D01*
X55177140Y-8468531D01*
X55387757Y-8692815D01*
X55568603Y-8941728D01*
X55716826Y-9211345D01*
X55830088Y-9497412D01*
X55906604Y-9795420D01*
X55945165Y-10100667D01*
X55945165Y-10408341D01*
X55906604Y-10713588D01*
G37*
G36*
X15406604Y-24213588D02*
G01*
X15330088Y-24511596D01*
X15216826Y-24797663D01*
X15068603Y-25067280D01*
X14887757Y-25316193D01*
X14677140Y-25540477D01*
X14440074Y-25736596D01*
X14180297Y-25901455D01*
X13901905Y-26032456D01*
X13609290Y-26127533D01*
X13307066Y-26185185D01*
X13000000Y-26204504D01*
X12692934Y-26185185D01*
X12390710Y-26127533D01*
X12098095Y-26032456D01*
X11819703Y-25901455D01*
X11559926Y-25736596D01*
X11322860Y-25540477D01*
X11112243Y-25316193D01*
X10931397Y-25067280D01*
X10783174Y-24797663D01*
X10669912Y-24511596D01*
X10593396Y-24213588D01*
X10554835Y-23908341D01*
X10554835Y-23600667D01*
X10593396Y-23295420D01*
X10669912Y-22997412D01*
X10783174Y-22711345D01*
X10931397Y-22441728D01*
X11112243Y-22192815D01*
X11322860Y-21968531D01*
X11559926Y-21772412D01*
X11819703Y-21607553D01*
X12098095Y-21476552D01*
X12390710Y-21381475D01*
X12692934Y-21323823D01*
X13000000Y-21304504D01*
X13045938Y-21307394D01*
X13045938Y-22000198D01*
X12786131Y-22012678D01*
X12531022Y-22063422D01*
X12286215Y-22151317D01*
X12057089Y-22274430D01*
X11848677Y-22430059D01*
X11665558Y-22614783D01*
X11511754Y-22824545D01*
X11390645Y-23054736D01*
X11304890Y-23300301D01*
X11256374Y-23555843D01*
X11246162Y-23815749D01*
X11274479Y-24074310D01*
X11340703Y-24325846D01*
X11443378Y-24564830D01*
X11580250Y-24786012D01*
X11748312Y-24984535D01*
X11943871Y-25156035D01*
X12162631Y-25296746D01*
X12399786Y-25403577D01*
X12650128Y-25474181D01*
X12908155Y-25507006D01*
X13000000Y-25509411D01*
X13259392Y-25490135D01*
X13513085Y-25432730D01*
X13755507Y-25338457D01*
X13981332Y-25209388D01*
X14185598Y-25048357D01*
X14363819Y-24858903D01*
X14512079Y-24645187D01*
X14627121Y-24411904D01*
X14706419Y-24164179D01*
X14748229Y-23907454D01*
X14751634Y-23647369D01*
X14716558Y-23389638D01*
X14643773Y-23139923D01*
X14534876Y-22903708D01*
X14392261Y-22686184D01*
X14219061Y-22492130D01*
X14019080Y-22325807D01*
X13796711Y-22190870D01*
X13556840Y-22090284D01*
X13304736Y-22026258D01*
X13045938Y-22000198D01*
X13045938Y-21307394D01*
X13307066Y-21323823D01*
X13609290Y-21381475D01*
X13901905Y-21476552D01*
X14180297Y-21607553D01*
X14440074Y-21772412D01*
X14677140Y-21968531D01*
X14887757Y-22192815D01*
X15068603Y-22441728D01*
X15216826Y-22711345D01*
X15330088Y-22997412D01*
X15406604Y-23295420D01*
X15445165Y-23600667D01*
X15445165Y-23908341D01*
X15406604Y-24213588D01*
G37*
G36*
X26406604Y-17713588D02*
G01*
X26330088Y-18011596D01*
X26216826Y-18297663D01*
X26068603Y-18567280D01*
X25887757Y-18816193D01*
X25677140Y-19040477D01*
X25440074Y-19236596D01*
X25180297Y-19401455D01*
X24901905Y-19532456D01*
X24609290Y-19627533D01*
X24307066Y-19685185D01*
X24000000Y-19704504D01*
X23692934Y-19685185D01*
X23390710Y-19627533D01*
X23098095Y-19532456D01*
X22819703Y-19401455D01*
X22559926Y-19236596D01*
X22322860Y-19040477D01*
X22112243Y-18816193D01*
X21931397Y-18567280D01*
X21783174Y-18297663D01*
X21669912Y-18011596D01*
X21593396Y-17713588D01*
X21554835Y-17408341D01*
X21554835Y-17100667D01*
X21593396Y-16795420D01*
X21669912Y-16497412D01*
X21783174Y-16211345D01*
X21931397Y-15941728D01*
X22112243Y-15692815D01*
X22322860Y-15468531D01*
X22559926Y-15272412D01*
X22819703Y-15107553D01*
X23098095Y-14976552D01*
X23390710Y-14881475D01*
X23692934Y-14823823D01*
X24000000Y-14804504D01*
X24045938Y-14807394D01*
X24045938Y-15500198D01*
X23786131Y-15512678D01*
X23531022Y-15563422D01*
X23286215Y-15651317D01*
X23057089Y-15774430D01*
X22848677Y-15930059D01*
X22665558Y-16114783D01*
X22511754Y-16324545D01*
X22390645Y-16554736D01*
X22304890Y-16800301D01*
X22256374Y-17055843D01*
X22246162Y-17315749D01*
X22274479Y-17574310D01*
X22340703Y-17825846D01*
X22443378Y-18064830D01*
X22580250Y-18286012D01*
X22748312Y-18484535D01*
X22943871Y-18656035D01*
X23162631Y-18796746D01*
X23399786Y-18903577D01*
X23650128Y-18974181D01*
X23908155Y-19007006D01*
X24000000Y-19009411D01*
X24259392Y-18990135D01*
X24513085Y-18932730D01*
X24755507Y-18838457D01*
X24981332Y-18709388D01*
X25185598Y-18548357D01*
X25363819Y-18358903D01*
X25512079Y-18145187D01*
X25627121Y-17911904D01*
X25706419Y-17664179D01*
X25748229Y-17407454D01*
X25751634Y-17147369D01*
X25716558Y-16889638D01*
X25643773Y-16639923D01*
X25534876Y-16403708D01*
X25392261Y-16186184D01*
X25219061Y-15992130D01*
X25019080Y-15825807D01*
X24796711Y-15690870D01*
X24556840Y-15590284D01*
X24304736Y-15526258D01*
X24045938Y-15500198D01*
X24045938Y-14807394D01*
X24307066Y-14823823D01*
X24609290Y-14881475D01*
X24901905Y-14976552D01*
X25180297Y-15107553D01*
X25440074Y-15272412D01*
X25677140Y-15468531D01*
X25887757Y-15692815D01*
X26068603Y-15941728D01*
X26216826Y-16211345D01*
X26330088Y-16497412D01*
X26406604Y-16795420D01*
X26445165Y-17100667D01*
X26445165Y-17408341D01*
X26406604Y-17713588D01*
G37*
G36*
X17406604Y-10713588D02*
G01*
X17330088Y-11011596D01*
X17216826Y-11297663D01*
X17068603Y-11567280D01*
X16887757Y-11816193D01*
X16677140Y-12040477D01*
X16440074Y-12236596D01*
X16180297Y-12401455D01*
X15901905Y-12532456D01*
X15609290Y-12627533D01*
X15307066Y-12685185D01*
X15000000Y-12704504D01*
X14692934Y-12685185D01*
X14390710Y-12627533D01*
X14098095Y-12532456D01*
X13819703Y-12401455D01*
X13559926Y-12236596D01*
X13322860Y-12040477D01*
X13112243Y-11816193D01*
X12931397Y-11567280D01*
X12783174Y-11297663D01*
X12669912Y-11011596D01*
X12593396Y-10713588D01*
X12554835Y-10408341D01*
X12554835Y-10100667D01*
X12593396Y-9795420D01*
X12669912Y-9497412D01*
X12783174Y-9211345D01*
X12931397Y-8941728D01*
X13112243Y-8692815D01*
X13322860Y-8468531D01*
X13559926Y-8272412D01*
X13819703Y-8107553D01*
X14098095Y-7976552D01*
X14390710Y-7881475D01*
X14692934Y-7823823D01*
X15000000Y-7804504D01*
X15045938Y-7807394D01*
X15045938Y-8500198D01*
X14786131Y-8512678D01*
X14531022Y-8563422D01*
X14286215Y-8651317D01*
X14057089Y-8774430D01*
X13848677Y-8930059D01*
X13665558Y-9114783D01*
X13511754Y-9324545D01*
X13390645Y-9554736D01*
X13304890Y-9800301D01*
X13256374Y-10055843D01*
X13246162Y-10315749D01*
X13274479Y-10574310D01*
X13340703Y-10825846D01*
X13443378Y-11064830D01*
X13580250Y-11286012D01*
X13748312Y-11484535D01*
X13943871Y-11656035D01*
X14162631Y-11796746D01*
X14399786Y-11903577D01*
X14650128Y-11974181D01*
X14908155Y-12007006D01*
X15000000Y-12009411D01*
X15259392Y-11990135D01*
X15513085Y-11932730D01*
X15755507Y-11838457D01*
X15981332Y-11709388D01*
X16185598Y-11548357D01*
X16363819Y-11358903D01*
X16512079Y-11145187D01*
X16627121Y-10911904D01*
X16706419Y-10664179D01*
X16748229Y-10407454D01*
X16751634Y-10147369D01*
X16716558Y-9889638D01*
X16643773Y-9639923D01*
X16534876Y-9403708D01*
X16392261Y-9186184D01*
X16219061Y-8992130D01*
X16019080Y-8825807D01*
X15796711Y-8690870D01*
X15556840Y-8590284D01*
X15304736Y-8526258D01*
X15045938Y-8500198D01*
X15045938Y-7807394D01*
X15307066Y-7823823D01*
X15609290Y-7881475D01*
X15901905Y-7976552D01*
X16180297Y-8107553D01*
X16440074Y-8272412D01*
X16677140Y-8468531D01*
X16887757Y-8692815D01*
X17068603Y-8941728D01*
X17216826Y-9211345D01*
X17330088Y-9497412D01*
X17406604Y-9795420D01*
X17445165Y-10100667D01*
X17445165Y-10408341D01*
X17406604Y-10713588D01*
G37*
G36*
X42906604Y-36713588D02*
G01*
X42830088Y-37011596D01*
X42716826Y-37297663D01*
X42568603Y-37567280D01*
X42387757Y-37816193D01*
X42177140Y-38040477D01*
X41940074Y-38236596D01*
X41680297Y-38401455D01*
X41401905Y-38532456D01*
X41109290Y-38627533D01*
X40807066Y-38685185D01*
X40500000Y-38704504D01*
X40192934Y-38685185D01*
X39890710Y-38627533D01*
X39598095Y-38532456D01*
X39319703Y-38401455D01*
X39059926Y-38236596D01*
X38822860Y-38040477D01*
X38612243Y-37816193D01*
X38431397Y-37567280D01*
X38283174Y-37297663D01*
X38169912Y-37011596D01*
X38093396Y-36713588D01*
X38054835Y-36408341D01*
X38054835Y-36100667D01*
X38093396Y-35795420D01*
X38169912Y-35497412D01*
X38283174Y-35211345D01*
X38431397Y-34941728D01*
X38612243Y-34692815D01*
X38822860Y-34468531D01*
X39059926Y-34272412D01*
X39319703Y-34107553D01*
X39598095Y-33976552D01*
X39890710Y-33881475D01*
X40192934Y-33823823D01*
X40500000Y-33804504D01*
X40545938Y-33807394D01*
X40545938Y-34500198D01*
X40286131Y-34512678D01*
X40031022Y-34563422D01*
X39786215Y-34651317D01*
X39557089Y-34774430D01*
X39348677Y-34930059D01*
X39165558Y-35114783D01*
X39011754Y-35324545D01*
X38890645Y-35554736D01*
X38804890Y-35800301D01*
X38756374Y-36055843D01*
X38746162Y-36315749D01*
X38774479Y-36574310D01*
X38840703Y-36825846D01*
X38943378Y-37064830D01*
X39080250Y-37286012D01*
X39248312Y-37484535D01*
X39443871Y-37656035D01*
X39662631Y-37796746D01*
X39899786Y-37903577D01*
X40150128Y-37974181D01*
X40408155Y-38007006D01*
X40500000Y-38009411D01*
X40759392Y-37990135D01*
X41013085Y-37932730D01*
X41255507Y-37838457D01*
X41481332Y-37709388D01*
X41685598Y-37548357D01*
X41863819Y-37358903D01*
X42012079Y-37145187D01*
X42127121Y-36911904D01*
X42206419Y-36664179D01*
X42248229Y-36407454D01*
X42251634Y-36147369D01*
X42216558Y-35889638D01*
X42143773Y-35639923D01*
X42034876Y-35403708D01*
X41892261Y-35186184D01*
X41719061Y-34992130D01*
X41519080Y-34825807D01*
X41296711Y-34690870D01*
X41056840Y-34590284D01*
X40804736Y-34526258D01*
X40545938Y-34500198D01*
X40545938Y-33807394D01*
X40807066Y-33823823D01*
X41109290Y-33881475D01*
X41401905Y-33976552D01*
X41680297Y-34107553D01*
X41940074Y-34272412D01*
X42177140Y-34468531D01*
X42387757Y-34692815D01*
X42568603Y-34941728D01*
X42716826Y-35211345D01*
X42830088Y-35497412D01*
X42906604Y-35795420D01*
X42945165Y-36100667D01*
X42945165Y-36408341D01*
X42906604Y-36713588D01*
G37*
G36*
X37406604Y-36713588D02*
G01*
X37330088Y-37011596D01*
X37216826Y-37297663D01*
X37068603Y-37567280D01*
X36887757Y-37816193D01*
X36677140Y-38040477D01*
X36440074Y-38236596D01*
X36180297Y-38401455D01*
X35901905Y-38532456D01*
X35609290Y-38627533D01*
X35307066Y-38685185D01*
X35000000Y-38704504D01*
X34692934Y-38685185D01*
X34390710Y-38627533D01*
X34098095Y-38532456D01*
X33819703Y-38401455D01*
X33559926Y-38236596D01*
X33322860Y-38040477D01*
X33112243Y-37816193D01*
X32931397Y-37567280D01*
X32783174Y-37297663D01*
X32669912Y-37011596D01*
X32593396Y-36713588D01*
X32554835Y-36408341D01*
X32554835Y-36100667D01*
X32593396Y-35795420D01*
X32669912Y-35497412D01*
X32783174Y-35211345D01*
X32931397Y-34941728D01*
X33112243Y-34692815D01*
X33322860Y-34468531D01*
X33559926Y-34272412D01*
X33819703Y-34107553D01*
X34098095Y-33976552D01*
X34390710Y-33881475D01*
X34692934Y-33823823D01*
X35000000Y-33804504D01*
X35045938Y-33807394D01*
X35045938Y-34500198D01*
X34786131Y-34512678D01*
X34531022Y-34563422D01*
X34286215Y-34651317D01*
X34057089Y-34774430D01*
X33848677Y-34930059D01*
X33665558Y-35114783D01*
X33511754Y-35324545D01*
X33390645Y-35554736D01*
X33304890Y-35800301D01*
X33256374Y-36055843D01*
X33246162Y-36315749D01*
X33274479Y-36574310D01*
X33340703Y-36825846D01*
X33443378Y-37064830D01*
X33580250Y-37286012D01*
X33748312Y-37484535D01*
X33943871Y-37656035D01*
X34162631Y-37796746D01*
X34399786Y-37903577D01*
X34650128Y-37974181D01*
X34908155Y-38007006D01*
X35000000Y-38009411D01*
X35259392Y-37990135D01*
X35513085Y-37932730D01*
X35755507Y-37838457D01*
X35981332Y-37709388D01*
X36185598Y-37548357D01*
X36363819Y-37358903D01*
X36512079Y-37145187D01*
X36627121Y-36911904D01*
X36706419Y-36664179D01*
X36748229Y-36407454D01*
X36751634Y-36147369D01*
X36716558Y-35889638D01*
X36643773Y-35639923D01*
X36534876Y-35403708D01*
X36392261Y-35186184D01*
X36219061Y-34992130D01*
X36019080Y-34825807D01*
X35796711Y-34690870D01*
X35556840Y-34590284D01*
X35304736Y-34526258D01*
X35045938Y-34500198D01*
X35045938Y-33807394D01*
X35307066Y-33823823D01*
X35609290Y-33881475D01*
X35901905Y-33976552D01*
X36180297Y-34107553D01*
X36440074Y-34272412D01*
X36677140Y-34468531D01*
X36887757Y-34692815D01*
X37068603Y-34941728D01*
X37216826Y-35211345D01*
X37330088Y-35497412D01*
X37406604Y-35795420D01*
X37445165Y-36100667D01*
X37445165Y-36408341D01*
X37406604Y-36713588D01*
G37*
G36*
X50406604Y-10713588D02*
G01*
X50330088Y-11011596D01*
X50216826Y-11297663D01*
X50068603Y-11567280D01*
X49887757Y-11816193D01*
X49677140Y-12040477D01*
X49440074Y-12236596D01*
X49180297Y-12401455D01*
X48901905Y-12532456D01*
X48609290Y-12627533D01*
X48307066Y-12685185D01*
X48000000Y-12704504D01*
X47692934Y-12685185D01*
X47390710Y-12627533D01*
X47098095Y-12532456D01*
X46819703Y-12401455D01*
X46559926Y-12236596D01*
X46322860Y-12040477D01*
X46112243Y-11816193D01*
X45931397Y-11567280D01*
X45783174Y-11297663D01*
X45669912Y-11011596D01*
X45593396Y-10713588D01*
X45554835Y-10408341D01*
X45554835Y-10100667D01*
X45593396Y-9795420D01*
X45669912Y-9497412D01*
X45783174Y-9211345D01*
X45931397Y-8941728D01*
X46112243Y-8692815D01*
X46322860Y-8468531D01*
X46559926Y-8272412D01*
X46819703Y-8107553D01*
X47098095Y-7976552D01*
X47390710Y-7881475D01*
X47692934Y-7823823D01*
X48000000Y-7804504D01*
X48045938Y-7807394D01*
X48045938Y-8500198D01*
X47786131Y-8512678D01*
X47531022Y-8563422D01*
X47286215Y-8651317D01*
X47057089Y-8774430D01*
X46848677Y-8930059D01*
X46665558Y-9114783D01*
X46511754Y-9324545D01*
X46390645Y-9554736D01*
X46304890Y-9800301D01*
X46256374Y-10055843D01*
X46246162Y-10315749D01*
X46274479Y-10574310D01*
X46340703Y-10825846D01*
X46443378Y-11064830D01*
X46580250Y-11286012D01*
X46748312Y-11484535D01*
X46943871Y-11656035D01*
X47162631Y-11796746D01*
X47399786Y-11903577D01*
X47650128Y-11974181D01*
X47908155Y-12007006D01*
X48000000Y-12009411D01*
X48259392Y-11990135D01*
X48513085Y-11932730D01*
X48755507Y-11838457D01*
X48981332Y-11709388D01*
X49185598Y-11548357D01*
X49363819Y-11358903D01*
X49512079Y-11145187D01*
X49627121Y-10911904D01*
X49706419Y-10664179D01*
X49748229Y-10407454D01*
X49751634Y-10147369D01*
X49716558Y-9889638D01*
X49643773Y-9639923D01*
X49534876Y-9403708D01*
X49392261Y-9186184D01*
X49219061Y-8992130D01*
X49019080Y-8825807D01*
X48796711Y-8690870D01*
X48556840Y-8590284D01*
X48304736Y-8526258D01*
X48045938Y-8500198D01*
X48045938Y-7807394D01*
X48307066Y-7823823D01*
X48609290Y-7881475D01*
X48901905Y-7976552D01*
X49180297Y-8107553D01*
X49440074Y-8272412D01*
X49677140Y-8468531D01*
X49887757Y-8692815D01*
X50068603Y-8941728D01*
X50216826Y-9211345D01*
X50330088Y-9497412D01*
X50406604Y-9795420D01*
X50445165Y-10100667D01*
X50445165Y-10408341D01*
X50406604Y-10713588D01*
G37*
G36*
X42906604Y-30713588D02*
G01*
X42830088Y-31011596D01*
X42716826Y-31297663D01*
X42568603Y-31567280D01*
X42387757Y-31816193D01*
X42177140Y-32040477D01*
X41940074Y-32236596D01*
X41680297Y-32401455D01*
X41401905Y-32532456D01*
X41109290Y-32627533D01*
X40807066Y-32685185D01*
X40500000Y-32704504D01*
X40192934Y-32685185D01*
X39890710Y-32627533D01*
X39598095Y-32532456D01*
X39319703Y-32401455D01*
X39059926Y-32236596D01*
X38822860Y-32040477D01*
X38612243Y-31816193D01*
X38431397Y-31567280D01*
X38283174Y-31297663D01*
X38169912Y-31011596D01*
X38093396Y-30713588D01*
X38054835Y-30408341D01*
X38054835Y-30100667D01*
X38093396Y-29795420D01*
X38169912Y-29497412D01*
X38283174Y-29211345D01*
X38431397Y-28941728D01*
X38612243Y-28692815D01*
X38822860Y-28468531D01*
X39059926Y-28272412D01*
X39319703Y-28107553D01*
X39598095Y-27976552D01*
X39890710Y-27881475D01*
X40192934Y-27823823D01*
X40500000Y-27804504D01*
X40545938Y-27807394D01*
X40545938Y-28500198D01*
X40286131Y-28512678D01*
X40031022Y-28563422D01*
X39786215Y-28651317D01*
X39557089Y-28774430D01*
X39348677Y-28930059D01*
X39165558Y-29114783D01*
X39011754Y-29324545D01*
X38890645Y-29554736D01*
X38804890Y-29800301D01*
X38756374Y-30055843D01*
X38746162Y-30315749D01*
X38774479Y-30574310D01*
X38840703Y-30825846D01*
X38943378Y-31064830D01*
X39080250Y-31286012D01*
X39248312Y-31484535D01*
X39443871Y-31656035D01*
X39662631Y-31796746D01*
X39899786Y-31903577D01*
X40150128Y-31974181D01*
X40408155Y-32007006D01*
X40500000Y-32009411D01*
X40759392Y-31990135D01*
X41013085Y-31932730D01*
X41255507Y-31838457D01*
X41481332Y-31709388D01*
X41685598Y-31548357D01*
X41863819Y-31358903D01*
X42012079Y-31145187D01*
X42127121Y-30911904D01*
X42206419Y-30664179D01*
X42248229Y-30407454D01*
X42251634Y-30147369D01*
X42216558Y-29889638D01*
X42143773Y-29639923D01*
X42034876Y-29403708D01*
X41892261Y-29186184D01*
X41719061Y-28992130D01*
X41519080Y-28825807D01*
X41296711Y-28690870D01*
X41056840Y-28590284D01*
X40804736Y-28526258D01*
X40545938Y-28500198D01*
X40545938Y-27807394D01*
X40807066Y-27823823D01*
X41109290Y-27881475D01*
X41401905Y-27976552D01*
X41680297Y-28107553D01*
X41940074Y-28272412D01*
X42177140Y-28468531D01*
X42387757Y-28692815D01*
X42568603Y-28941728D01*
X42716826Y-29211345D01*
X42830088Y-29497412D01*
X42906604Y-29795420D01*
X42945165Y-30100667D01*
X42945165Y-30408341D01*
X42906604Y-30713588D01*
G37*
G36*
X11906604Y-10713588D02*
G01*
X11830088Y-11011596D01*
X11716826Y-11297663D01*
X11568603Y-11567280D01*
X11387757Y-11816193D01*
X11177140Y-12040477D01*
X10940074Y-12236596D01*
X10680297Y-12401455D01*
X10401905Y-12532456D01*
X10109290Y-12627533D01*
X9807066Y-12685185D01*
X9500000Y-12704504D01*
X9192934Y-12685185D01*
X8890710Y-12627533D01*
X8598095Y-12532456D01*
X8319703Y-12401455D01*
X8059926Y-12236596D01*
X7822860Y-12040477D01*
X7612243Y-11816193D01*
X7431397Y-11567280D01*
X7283174Y-11297663D01*
X7169912Y-11011596D01*
X7093396Y-10713588D01*
X7054835Y-10408341D01*
X7054835Y-10100667D01*
X7093396Y-9795420D01*
X7169912Y-9497412D01*
X7283174Y-9211345D01*
X7431397Y-8941728D01*
X7612243Y-8692815D01*
X7822860Y-8468531D01*
X8059926Y-8272412D01*
X8319703Y-8107553D01*
X8598095Y-7976552D01*
X8890710Y-7881475D01*
X9192934Y-7823823D01*
X9500000Y-7804504D01*
X9545938Y-7807394D01*
X9545938Y-8500198D01*
X9286131Y-8512678D01*
X9031022Y-8563422D01*
X8786215Y-8651317D01*
X8557089Y-8774430D01*
X8348677Y-8930059D01*
X8165558Y-9114783D01*
X8011754Y-9324545D01*
X7890645Y-9554736D01*
X7804890Y-9800301D01*
X7756374Y-10055843D01*
X7746162Y-10315749D01*
X7774479Y-10574310D01*
X7840703Y-10825846D01*
X7943378Y-11064830D01*
X8080250Y-11286012D01*
X8248312Y-11484535D01*
X8443871Y-11656035D01*
X8662631Y-11796746D01*
X8899786Y-11903577D01*
X9150128Y-11974181D01*
X9408155Y-12007006D01*
X9500000Y-12009411D01*
X9759392Y-11990135D01*
X10013085Y-11932730D01*
X10255507Y-11838457D01*
X10481332Y-11709388D01*
X10685598Y-11548357D01*
X10863819Y-11358903D01*
X11012079Y-11145187D01*
X11127121Y-10911904D01*
X11206419Y-10664179D01*
X11248229Y-10407454D01*
X11251634Y-10147369D01*
X11216558Y-9889638D01*
X11143773Y-9639923D01*
X11034876Y-9403708D01*
X10892261Y-9186184D01*
X10719061Y-8992130D01*
X10519080Y-8825807D01*
X10296711Y-8690870D01*
X10056840Y-8590284D01*
X9804736Y-8526258D01*
X9545938Y-8500198D01*
X9545938Y-7807394D01*
X9807066Y-7823823D01*
X10109290Y-7881475D01*
X10401905Y-7976552D01*
X10680297Y-8107553D01*
X10940074Y-8272412D01*
X11177140Y-8468531D01*
X11387757Y-8692815D01*
X11568603Y-8941728D01*
X11716826Y-9211345D01*
X11830088Y-9497412D01*
X11906604Y-9795420D01*
X11945165Y-10100667D01*
X11945165Y-10408341D01*
X11906604Y-10713588D01*
G37*
G36*
X15406604Y-30713588D02*
G01*
X15330088Y-31011596D01*
X15216826Y-31297663D01*
X15068603Y-31567280D01*
X14887757Y-31816193D01*
X14677140Y-32040477D01*
X14440074Y-32236596D01*
X14180297Y-32401455D01*
X13901905Y-32532456D01*
X13609290Y-32627533D01*
X13307066Y-32685185D01*
X13000000Y-32704504D01*
X12692934Y-32685185D01*
X12390710Y-32627533D01*
X12098095Y-32532456D01*
X11819703Y-32401455D01*
X11559926Y-32236596D01*
X11322860Y-32040477D01*
X11112243Y-31816193D01*
X10931397Y-31567280D01*
X10783174Y-31297663D01*
X10669912Y-31011596D01*
X10593396Y-30713588D01*
X10554835Y-30408341D01*
X10554835Y-30100667D01*
X10593396Y-29795420D01*
X10669912Y-29497412D01*
X10783174Y-29211345D01*
X10931397Y-28941728D01*
X11112243Y-28692815D01*
X11322860Y-28468531D01*
X11559926Y-28272412D01*
X11819703Y-28107553D01*
X12098095Y-27976552D01*
X12390710Y-27881475D01*
X12692934Y-27823823D01*
X13000000Y-27804504D01*
X13045938Y-27807394D01*
X13045938Y-28500198D01*
X12786131Y-28512678D01*
X12531022Y-28563422D01*
X12286215Y-28651317D01*
X12057089Y-28774430D01*
X11848677Y-28930059D01*
X11665558Y-29114783D01*
X11511754Y-29324545D01*
X11390645Y-29554736D01*
X11304890Y-29800301D01*
X11256374Y-30055843D01*
X11246162Y-30315749D01*
X11274479Y-30574310D01*
X11340703Y-30825846D01*
X11443378Y-31064830D01*
X11580250Y-31286012D01*
X11748312Y-31484535D01*
X11943871Y-31656035D01*
X12162631Y-31796746D01*
X12399786Y-31903577D01*
X12650128Y-31974181D01*
X12908155Y-32007006D01*
X13000000Y-32009411D01*
X13259392Y-31990135D01*
X13513085Y-31932730D01*
X13755507Y-31838457D01*
X13981332Y-31709388D01*
X14185598Y-31548357D01*
X14363819Y-31358903D01*
X14512079Y-31145187D01*
X14627121Y-30911904D01*
X14706419Y-30664179D01*
X14748229Y-30407454D01*
X14751634Y-30147369D01*
X14716558Y-29889638D01*
X14643773Y-29639923D01*
X14534876Y-29403708D01*
X14392261Y-29186184D01*
X14219061Y-28992130D01*
X14019080Y-28825807D01*
X13796711Y-28690870D01*
X13556840Y-28590284D01*
X13304736Y-28526258D01*
X13045938Y-28500198D01*
X13045938Y-27807394D01*
X13307066Y-27823823D01*
X13609290Y-27881475D01*
X13901905Y-27976552D01*
X14180297Y-28107553D01*
X14440074Y-28272412D01*
X14677140Y-28468531D01*
X14887757Y-28692815D01*
X15068603Y-28941728D01*
X15216826Y-29211345D01*
X15330088Y-29497412D01*
X15406604Y-29795420D01*
X15445165Y-30100667D01*
X15445165Y-30408341D01*
X15406604Y-30713588D01*
G37*
G36*
X39406604Y-10713588D02*
G01*
X39330088Y-11011596D01*
X39216826Y-11297663D01*
X39068603Y-11567280D01*
X38887757Y-11816193D01*
X38677140Y-12040477D01*
X38440074Y-12236596D01*
X38180297Y-12401455D01*
X37901905Y-12532456D01*
X37609290Y-12627533D01*
X37307066Y-12685185D01*
X37000000Y-12704504D01*
X36692934Y-12685185D01*
X36390710Y-12627533D01*
X36098095Y-12532456D01*
X35819703Y-12401455D01*
X35559926Y-12236596D01*
X35322860Y-12040477D01*
X35112243Y-11816193D01*
X34931397Y-11567280D01*
X34783174Y-11297663D01*
X34669912Y-11011596D01*
X34593396Y-10713588D01*
X34554835Y-10408341D01*
X34554835Y-10100667D01*
X34593396Y-9795420D01*
X34669912Y-9497412D01*
X34783174Y-9211345D01*
X34931397Y-8941728D01*
X35112243Y-8692815D01*
X35322860Y-8468531D01*
X35559926Y-8272412D01*
X35819703Y-8107553D01*
X36098095Y-7976552D01*
X36390710Y-7881475D01*
X36692934Y-7823823D01*
X37000000Y-7804504D01*
X37045938Y-7807394D01*
X37045938Y-8500198D01*
X36786131Y-8512678D01*
X36531022Y-8563422D01*
X36286215Y-8651317D01*
X36057089Y-8774430D01*
X35848677Y-8930059D01*
X35665558Y-9114783D01*
X35511754Y-9324545D01*
X35390645Y-9554736D01*
X35304890Y-9800301D01*
X35256374Y-10055843D01*
X35246162Y-10315749D01*
X35274479Y-10574310D01*
X35340703Y-10825846D01*
X35443378Y-11064830D01*
X35580250Y-11286012D01*
X35748312Y-11484535D01*
X35943871Y-11656035D01*
X36162631Y-11796746D01*
X36399786Y-11903577D01*
X36650128Y-11974181D01*
X36908155Y-12007006D01*
X37000000Y-12009411D01*
X37259392Y-11990135D01*
X37513085Y-11932730D01*
X37755507Y-11838457D01*
X37981332Y-11709388D01*
X38185598Y-11548357D01*
X38363819Y-11358903D01*
X38512079Y-11145187D01*
X38627121Y-10911904D01*
X38706419Y-10664179D01*
X38748229Y-10407454D01*
X38751634Y-10147369D01*
X38716558Y-9889638D01*
X38643773Y-9639923D01*
X38534876Y-9403708D01*
X38392261Y-9186184D01*
X38219061Y-8992130D01*
X38019080Y-8825807D01*
X37796711Y-8690870D01*
X37556840Y-8590284D01*
X37304736Y-8526258D01*
X37045938Y-8500198D01*
X37045938Y-7807394D01*
X37307066Y-7823823D01*
X37609290Y-7881475D01*
X37901905Y-7976552D01*
X38180297Y-8107553D01*
X38440074Y-8272412D01*
X38677140Y-8468531D01*
X38887757Y-8692815D01*
X39068603Y-8941728D01*
X39216826Y-9211345D01*
X39330088Y-9497412D01*
X39406604Y-9795420D01*
X39445165Y-10100667D01*
X39445165Y-10408341D01*
X39406604Y-10713588D01*
G37*
G36*
X9906604Y-17713588D02*
G01*
X9830088Y-18011596D01*
X9716826Y-18297663D01*
X9568603Y-18567280D01*
X9387757Y-18816193D01*
X9177140Y-19040477D01*
X8940074Y-19236596D01*
X8680297Y-19401455D01*
X8401905Y-19532456D01*
X8109290Y-19627533D01*
X7807066Y-19685185D01*
X7500000Y-19704504D01*
X7192934Y-19685185D01*
X6890710Y-19627533D01*
X6598095Y-19532456D01*
X6319703Y-19401455D01*
X6059926Y-19236596D01*
X5822860Y-19040477D01*
X5612243Y-18816193D01*
X5431397Y-18567280D01*
X5283174Y-18297663D01*
X5169912Y-18011596D01*
X5093396Y-17713588D01*
X5054835Y-17408341D01*
X5054835Y-17100667D01*
X5093396Y-16795420D01*
X5169912Y-16497412D01*
X5283174Y-16211345D01*
X5431397Y-15941728D01*
X5612243Y-15692815D01*
X5822860Y-15468531D01*
X6059926Y-15272412D01*
X6319703Y-15107553D01*
X6598095Y-14976552D01*
X6890710Y-14881475D01*
X7192934Y-14823823D01*
X7500000Y-14804504D01*
X7545938Y-14807394D01*
X7545938Y-15500198D01*
X7286131Y-15512678D01*
X7031022Y-15563422D01*
X6786215Y-15651317D01*
X6557089Y-15774430D01*
X6348677Y-15930059D01*
X6165558Y-16114783D01*
X6011754Y-16324545D01*
X5890645Y-16554736D01*
X5804890Y-16800301D01*
X5756374Y-17055843D01*
X5746162Y-17315749D01*
X5774479Y-17574310D01*
X5840703Y-17825846D01*
X5943378Y-18064830D01*
X6080250Y-18286012D01*
X6248312Y-18484535D01*
X6443871Y-18656035D01*
X6662631Y-18796746D01*
X6899786Y-18903577D01*
X7150128Y-18974181D01*
X7408155Y-19007006D01*
X7500000Y-19009411D01*
X7759392Y-18990135D01*
X8013085Y-18932730D01*
X8255507Y-18838457D01*
X8481332Y-18709388D01*
X8685598Y-18548357D01*
X8863819Y-18358903D01*
X9012079Y-18145187D01*
X9127121Y-17911904D01*
X9206419Y-17664179D01*
X9248229Y-17407454D01*
X9251634Y-17147369D01*
X9216558Y-16889638D01*
X9143773Y-16639923D01*
X9034876Y-16403708D01*
X8892261Y-16186184D01*
X8719061Y-15992130D01*
X8519080Y-15825807D01*
X8296711Y-15690870D01*
X8056840Y-15590284D01*
X7804736Y-15526258D01*
X7545938Y-15500198D01*
X7545938Y-14807394D01*
X7807066Y-14823823D01*
X8109290Y-14881475D01*
X8401905Y-14976552D01*
X8680297Y-15107553D01*
X8940074Y-15272412D01*
X9177140Y-15468531D01*
X9387757Y-15692815D01*
X9568603Y-15941728D01*
X9716826Y-16211345D01*
X9830088Y-16497412D01*
X9906604Y-16795420D01*
X9945165Y-17100667D01*
X9945165Y-17408341D01*
X9906604Y-17713588D01*
G37*
G36*
X42906604Y-17713588D02*
G01*
X42830088Y-18011596D01*
X42716826Y-18297663D01*
X42568603Y-18567280D01*
X42387757Y-18816193D01*
X42177140Y-19040477D01*
X41940074Y-19236596D01*
X41680297Y-19401455D01*
X41401905Y-19532456D01*
X41109290Y-19627533D01*
X40807066Y-19685185D01*
X40500000Y-19704504D01*
X40192934Y-19685185D01*
X39890710Y-19627533D01*
X39598095Y-19532456D01*
X39319703Y-19401455D01*
X39059926Y-19236596D01*
X38822860Y-19040477D01*
X38612243Y-18816193D01*
X38431397Y-18567280D01*
X38283174Y-18297663D01*
X38169912Y-18011596D01*
X38093396Y-17713588D01*
X38054835Y-17408341D01*
X38054835Y-17100667D01*
X38093396Y-16795420D01*
X38169912Y-16497412D01*
X38283174Y-16211345D01*
X38431397Y-15941728D01*
X38612243Y-15692815D01*
X38822860Y-15468531D01*
X39059926Y-15272412D01*
X39319703Y-15107553D01*
X39598095Y-14976552D01*
X39890710Y-14881475D01*
X40192934Y-14823823D01*
X40500000Y-14804504D01*
X40545938Y-14807394D01*
X40545938Y-15500198D01*
X40286131Y-15512678D01*
X40031022Y-15563422D01*
X39786215Y-15651317D01*
X39557089Y-15774430D01*
X39348677Y-15930059D01*
X39165558Y-16114783D01*
X39011754Y-16324545D01*
X38890645Y-16554736D01*
X38804890Y-16800301D01*
X38756374Y-17055843D01*
X38746162Y-17315749D01*
X38774479Y-17574310D01*
X38840703Y-17825846D01*
X38943378Y-18064830D01*
X39080250Y-18286012D01*
X39248312Y-18484535D01*
X39443871Y-18656035D01*
X39662631Y-18796746D01*
X39899786Y-18903577D01*
X40150128Y-18974181D01*
X40408155Y-19007006D01*
X40500000Y-19009411D01*
X40759392Y-18990135D01*
X41013085Y-18932730D01*
X41255507Y-18838457D01*
X41481332Y-18709388D01*
X41685598Y-18548357D01*
X41863819Y-18358903D01*
X42012079Y-18145187D01*
X42127121Y-17911904D01*
X42206419Y-17664179D01*
X42248229Y-17407454D01*
X42251634Y-17147369D01*
X42216558Y-16889638D01*
X42143773Y-16639923D01*
X42034876Y-16403708D01*
X41892261Y-16186184D01*
X41719061Y-15992130D01*
X41519080Y-15825807D01*
X41296711Y-15690870D01*
X41056840Y-15590284D01*
X40804736Y-15526258D01*
X40545938Y-15500198D01*
X40545938Y-14807394D01*
X40807066Y-14823823D01*
X41109290Y-14881475D01*
X41401905Y-14976552D01*
X41680297Y-15107553D01*
X41940074Y-15272412D01*
X42177140Y-15468531D01*
X42387757Y-15692815D01*
X42568603Y-15941728D01*
X42716826Y-16211345D01*
X42830088Y-16497412D01*
X42906604Y-16795420D01*
X42945165Y-17100667D01*
X42945165Y-17408341D01*
X42906604Y-17713588D01*
G37*
G36*
X48406604Y-36713588D02*
G01*
X48330088Y-37011596D01*
X48216826Y-37297663D01*
X48068603Y-37567280D01*
X47887757Y-37816193D01*
X47677140Y-38040477D01*
X47440074Y-38236596D01*
X47180297Y-38401455D01*
X46901905Y-38532456D01*
X46609290Y-38627533D01*
X46307066Y-38685185D01*
X46000000Y-38704504D01*
X45692934Y-38685185D01*
X45390710Y-38627533D01*
X45098095Y-38532456D01*
X44819703Y-38401455D01*
X44559926Y-38236596D01*
X44322860Y-38040477D01*
X44112243Y-37816193D01*
X43931397Y-37567280D01*
X43783174Y-37297663D01*
X43669912Y-37011596D01*
X43593396Y-36713588D01*
X43554835Y-36408341D01*
X43554835Y-36100667D01*
X43593396Y-35795420D01*
X43669912Y-35497412D01*
X43783174Y-35211345D01*
X43931397Y-34941728D01*
X44112243Y-34692815D01*
X44322860Y-34468531D01*
X44559926Y-34272412D01*
X44819703Y-34107553D01*
X45098095Y-33976552D01*
X45390710Y-33881475D01*
X45692934Y-33823823D01*
X46000000Y-33804504D01*
X46045938Y-33807394D01*
X46045938Y-34500198D01*
X45786131Y-34512678D01*
X45531022Y-34563422D01*
X45286215Y-34651317D01*
X45057089Y-34774430D01*
X44848677Y-34930059D01*
X44665558Y-35114783D01*
X44511754Y-35324545D01*
X44390645Y-35554736D01*
X44304890Y-35800301D01*
X44256374Y-36055843D01*
X44246162Y-36315749D01*
X44274479Y-36574310D01*
X44340703Y-36825846D01*
X44443378Y-37064830D01*
X44580250Y-37286012D01*
X44748312Y-37484535D01*
X44943871Y-37656035D01*
X45162631Y-37796746D01*
X45399786Y-37903577D01*
X45650128Y-37974181D01*
X45908155Y-38007006D01*
X46000000Y-38009411D01*
X46259392Y-37990135D01*
X46513085Y-37932730D01*
X46755507Y-37838457D01*
X46981332Y-37709388D01*
X47185598Y-37548357D01*
X47363819Y-37358903D01*
X47512079Y-37145187D01*
X47627121Y-36911904D01*
X47706419Y-36664179D01*
X47748229Y-36407454D01*
X47751634Y-36147369D01*
X47716558Y-35889638D01*
X47643773Y-35639923D01*
X47534876Y-35403708D01*
X47392261Y-35186184D01*
X47219061Y-34992130D01*
X47019080Y-34825807D01*
X46796711Y-34690870D01*
X46556840Y-34590284D01*
X46304736Y-34526258D01*
X46045938Y-34500198D01*
X46045938Y-33807394D01*
X46307066Y-33823823D01*
X46609290Y-33881475D01*
X46901905Y-33976552D01*
X47180297Y-34107553D01*
X47440074Y-34272412D01*
X47677140Y-34468531D01*
X47887757Y-34692815D01*
X48068603Y-34941728D01*
X48216826Y-35211345D01*
X48330088Y-35497412D01*
X48406604Y-35795420D01*
X48445165Y-36100667D01*
X48445165Y-36408341D01*
X48406604Y-36713588D01*
G37*
G36*
X23906604Y-36713588D02*
G01*
X23830088Y-37011596D01*
X23716826Y-37297663D01*
X23568603Y-37567280D01*
X23387757Y-37816193D01*
X23177140Y-38040477D01*
X22940074Y-38236596D01*
X22680297Y-38401455D01*
X22401905Y-38532456D01*
X22109290Y-38627533D01*
X21807066Y-38685185D01*
X21500000Y-38704504D01*
X21192934Y-38685185D01*
X20890710Y-38627533D01*
X20598095Y-38532456D01*
X20319703Y-38401455D01*
X20059926Y-38236596D01*
X19822860Y-38040477D01*
X19612243Y-37816193D01*
X19431397Y-37567280D01*
X19283174Y-37297663D01*
X19169912Y-37011596D01*
X19093396Y-36713588D01*
X19054835Y-36408341D01*
X19054835Y-36100667D01*
X19093396Y-35795420D01*
X19169912Y-35497412D01*
X19283174Y-35211345D01*
X19431397Y-34941728D01*
X19612243Y-34692815D01*
X19822860Y-34468531D01*
X20059926Y-34272412D01*
X20319703Y-34107553D01*
X20598095Y-33976552D01*
X20890710Y-33881475D01*
X21192934Y-33823823D01*
X21500000Y-33804504D01*
X21545938Y-33807394D01*
X21545938Y-34500198D01*
X21286131Y-34512678D01*
X21031022Y-34563422D01*
X20786215Y-34651317D01*
X20557089Y-34774430D01*
X20348677Y-34930059D01*
X20165558Y-35114783D01*
X20011754Y-35324545D01*
X19890645Y-35554736D01*
X19804890Y-35800301D01*
X19756374Y-36055843D01*
X19746162Y-36315749D01*
X19774479Y-36574310D01*
X19840703Y-36825846D01*
X19943378Y-37064830D01*
X20080250Y-37286012D01*
X20248312Y-37484535D01*
X20443871Y-37656035D01*
X20662631Y-37796746D01*
X20899786Y-37903577D01*
X21150128Y-37974181D01*
X21408155Y-38007006D01*
X21500000Y-38009411D01*
X21759392Y-37990135D01*
X22013085Y-37932730D01*
X22255507Y-37838457D01*
X22481332Y-37709388D01*
X22685598Y-37548357D01*
X22863819Y-37358903D01*
X23012079Y-37145187D01*
X23127121Y-36911904D01*
X23206419Y-36664179D01*
X23248229Y-36407454D01*
X23251634Y-36147369D01*
X23216558Y-35889638D01*
X23143773Y-35639923D01*
X23034876Y-35403708D01*
X22892261Y-35186184D01*
X22719061Y-34992130D01*
X22519080Y-34825807D01*
X22296711Y-34690870D01*
X22056840Y-34590284D01*
X21804736Y-34526258D01*
X21545938Y-34500198D01*
X21545938Y-33807394D01*
X21807066Y-33823823D01*
X22109290Y-33881475D01*
X22401905Y-33976552D01*
X22680297Y-34107553D01*
X22940074Y-34272412D01*
X23177140Y-34468531D01*
X23387757Y-34692815D01*
X23568603Y-34941728D01*
X23716826Y-35211345D01*
X23830088Y-35497412D01*
X23906604Y-35795420D01*
X23945165Y-36100667D01*
X23945165Y-36408341D01*
X23906604Y-36713588D01*
G37*
G36*
X31906604Y-24213588D02*
G01*
X31830088Y-24511596D01*
X31716826Y-24797663D01*
X31568603Y-25067280D01*
X31387757Y-25316193D01*
X31177140Y-25540477D01*
X30940074Y-25736596D01*
X30680297Y-25901455D01*
X30401905Y-26032456D01*
X30109290Y-26127533D01*
X29807066Y-26185185D01*
X29500000Y-26204504D01*
X29192934Y-26185185D01*
X28890710Y-26127533D01*
X28598095Y-26032456D01*
X28319703Y-25901455D01*
X28059926Y-25736596D01*
X27822860Y-25540477D01*
X27612243Y-25316193D01*
X27431397Y-25067280D01*
X27283174Y-24797663D01*
X27169912Y-24511596D01*
X27093396Y-24213588D01*
X27054835Y-23908341D01*
X27054835Y-23600667D01*
X27093396Y-23295420D01*
X27169912Y-22997412D01*
X27283174Y-22711345D01*
X27431397Y-22441728D01*
X27612243Y-22192815D01*
X27822860Y-21968531D01*
X28059926Y-21772412D01*
X28319703Y-21607553D01*
X28598095Y-21476552D01*
X28890710Y-21381475D01*
X29192934Y-21323823D01*
X29500000Y-21304504D01*
X29545938Y-21307394D01*
X29545938Y-22000198D01*
X29286131Y-22012678D01*
X29031022Y-22063422D01*
X28786215Y-22151317D01*
X28557089Y-22274430D01*
X28348677Y-22430059D01*
X28165558Y-22614783D01*
X28011754Y-22824545D01*
X27890645Y-23054736D01*
X27804890Y-23300301D01*
X27756374Y-23555843D01*
X27746162Y-23815749D01*
X27774479Y-24074310D01*
X27840703Y-24325846D01*
X27943378Y-24564830D01*
X28080250Y-24786012D01*
X28248312Y-24984535D01*
X28443871Y-25156035D01*
X28662631Y-25296746D01*
X28899786Y-25403577D01*
X29150128Y-25474181D01*
X29408155Y-25507006D01*
X29500000Y-25509411D01*
X29759392Y-25490135D01*
X30013085Y-25432730D01*
X30255507Y-25338457D01*
X30481332Y-25209388D01*
X30685598Y-25048357D01*
X30863819Y-24858903D01*
X31012079Y-24645187D01*
X31127121Y-24411904D01*
X31206419Y-24164179D01*
X31248229Y-23907454D01*
X31251634Y-23647369D01*
X31216558Y-23389638D01*
X31143773Y-23139923D01*
X31034876Y-22903708D01*
X30892261Y-22686184D01*
X30719061Y-22492130D01*
X30519080Y-22325807D01*
X30296711Y-22190870D01*
X30056840Y-22090284D01*
X29804736Y-22026258D01*
X29545938Y-22000198D01*
X29545938Y-21307394D01*
X29807066Y-21323823D01*
X30109290Y-21381475D01*
X30401905Y-21476552D01*
X30680297Y-21607553D01*
X30940074Y-21772412D01*
X31177140Y-21968531D01*
X31387757Y-22192815D01*
X31568603Y-22441728D01*
X31716826Y-22711345D01*
X31830088Y-22997412D01*
X31906604Y-23295420D01*
X31945165Y-23600667D01*
X31945165Y-23908341D01*
X31906604Y-24213588D01*
G37*
G36*
X48406604Y-17713588D02*
G01*
X48330088Y-18011596D01*
X48216826Y-18297663D01*
X48068603Y-18567280D01*
X47887757Y-18816193D01*
X47677140Y-19040477D01*
X47440074Y-19236596D01*
X47180297Y-19401455D01*
X46901905Y-19532456D01*
X46609290Y-19627533D01*
X46307066Y-19685185D01*
X46000000Y-19704504D01*
X45692934Y-19685185D01*
X45390710Y-19627533D01*
X45098095Y-19532456D01*
X44819703Y-19401455D01*
X44559926Y-19236596D01*
X44322860Y-19040477D01*
X44112243Y-18816193D01*
X43931397Y-18567280D01*
X43783174Y-18297663D01*
X43669912Y-18011596D01*
X43593396Y-17713588D01*
X43554835Y-17408341D01*
X43554835Y-17100667D01*
X43593396Y-16795420D01*
X43669912Y-16497412D01*
X43783174Y-16211345D01*
X43931397Y-15941728D01*
X44112243Y-15692815D01*
X44322860Y-15468531D01*
X44559926Y-15272412D01*
X44819703Y-15107553D01*
X45098095Y-14976552D01*
X45390710Y-14881475D01*
X45692934Y-14823823D01*
X46000000Y-14804504D01*
X46045938Y-14807394D01*
X46045938Y-15500198D01*
X45786131Y-15512678D01*
X45531022Y-15563422D01*
X45286215Y-15651317D01*
X45057089Y-15774430D01*
X44848677Y-15930059D01*
X44665558Y-16114783D01*
X44511754Y-16324545D01*
X44390645Y-16554736D01*
X44304890Y-16800301D01*
X44256374Y-17055843D01*
X44246162Y-17315749D01*
X44274479Y-17574310D01*
X44340703Y-17825846D01*
X44443378Y-18064830D01*
X44580250Y-18286012D01*
X44748312Y-18484535D01*
X44943871Y-18656035D01*
X45162631Y-18796746D01*
X45399786Y-18903577D01*
X45650128Y-18974181D01*
X45908155Y-19007006D01*
X46000000Y-19009411D01*
X46259392Y-18990135D01*
X46513085Y-18932730D01*
X46755507Y-18838457D01*
X46981332Y-18709388D01*
X47185598Y-18548357D01*
X47363819Y-18358903D01*
X47512079Y-18145187D01*
X47627121Y-17911904D01*
X47706419Y-17664179D01*
X47748229Y-17407454D01*
X47751634Y-17147369D01*
X47716558Y-16889638D01*
X47643773Y-16639923D01*
X47534876Y-16403708D01*
X47392261Y-16186184D01*
X47219061Y-15992130D01*
X47019080Y-15825807D01*
X46796711Y-15690870D01*
X46556840Y-15590284D01*
X46304736Y-15526258D01*
X46045938Y-15500198D01*
X46045938Y-14807394D01*
X46307066Y-14823823D01*
X46609290Y-14881475D01*
X46901905Y-14976552D01*
X47180297Y-15107553D01*
X47440074Y-15272412D01*
X47677140Y-15468531D01*
X47887757Y-15692815D01*
X48068603Y-15941728D01*
X48216826Y-16211345D01*
X48330088Y-16497412D01*
X48406604Y-16795420D01*
X48445165Y-17100667D01*
X48445165Y-17408341D01*
X48406604Y-17713588D01*
G37*
G36*
X20882892Y-24213588D02*
G01*
X20806376Y-24511596D01*
X20693114Y-24797663D01*
X20544891Y-25067280D01*
X20364045Y-25316193D01*
X20153428Y-25540477D01*
X19916362Y-25736596D01*
X19656585Y-25901455D01*
X19378193Y-26032456D01*
X19085578Y-26127533D01*
X18783354Y-26185185D01*
X18476288Y-26204504D01*
X18169222Y-26185185D01*
X17866998Y-26127533D01*
X17574383Y-26032456D01*
X17295991Y-25901455D01*
X17036214Y-25736596D01*
X16799148Y-25540477D01*
X16588531Y-25316193D01*
X16407685Y-25067280D01*
X16259462Y-24797663D01*
X16146200Y-24511596D01*
X16069684Y-24213588D01*
X16031123Y-23908341D01*
X16031123Y-23600667D01*
X16069684Y-23295420D01*
X16146200Y-22997412D01*
X16259462Y-22711345D01*
X16407685Y-22441728D01*
X16588531Y-22192815D01*
X16799148Y-21968531D01*
X17036214Y-21772412D01*
X17295991Y-21607553D01*
X17574383Y-21476552D01*
X17866998Y-21381475D01*
X18169222Y-21323823D01*
X18476288Y-21304504D01*
X18522226Y-21307394D01*
X18522226Y-22000198D01*
X18262419Y-22012678D01*
X18007310Y-22063422D01*
X17762503Y-22151317D01*
X17533377Y-22274430D01*
X17324965Y-22430059D01*
X17141846Y-22614783D01*
X16988042Y-22824545D01*
X16866933Y-23054736D01*
X16781178Y-23300301D01*
X16732662Y-23555843D01*
X16722450Y-23815749D01*
X16750767Y-24074310D01*
X16816991Y-24325846D01*
X16919666Y-24564830D01*
X17056538Y-24786012D01*
X17224600Y-24984535D01*
X17420159Y-25156035D01*
X17638919Y-25296746D01*
X17876074Y-25403577D01*
X18126416Y-25474181D01*
X18384443Y-25507006D01*
X18476288Y-25509411D01*
X18735680Y-25490135D01*
X18989373Y-25432730D01*
X19231795Y-25338457D01*
X19457620Y-25209388D01*
X19661886Y-25048357D01*
X19840107Y-24858903D01*
X19988367Y-24645187D01*
X20103409Y-24411904D01*
X20182707Y-24164179D01*
X20224517Y-23907454D01*
X20227922Y-23647369D01*
X20192846Y-23389638D01*
X20120061Y-23139923D01*
X20011164Y-22903708D01*
X19868549Y-22686184D01*
X19695349Y-22492130D01*
X19495368Y-22325807D01*
X19272999Y-22190870D01*
X19033128Y-22090284D01*
X18781024Y-22026258D01*
X18522226Y-22000198D01*
X18522226Y-21307394D01*
X18783354Y-21323823D01*
X19085578Y-21381475D01*
X19378193Y-21476552D01*
X19656585Y-21607553D01*
X19916362Y-21772412D01*
X20153428Y-21968531D01*
X20364045Y-22192815D01*
X20544891Y-22441728D01*
X20693114Y-22711345D01*
X20806376Y-22997412D01*
X20882892Y-23295420D01*
X20921453Y-23600667D01*
X20921453Y-23908341D01*
X20882892Y-24213588D01*
G37*
G36*
X26406604Y-30713588D02*
G01*
X26330088Y-31011596D01*
X26216826Y-31297663D01*
X26068603Y-31567280D01*
X25887757Y-31816193D01*
X25677140Y-32040477D01*
X25440074Y-32236596D01*
X25180297Y-32401455D01*
X24901905Y-32532456D01*
X24609290Y-32627533D01*
X24307066Y-32685185D01*
X24000000Y-32704504D01*
X23692934Y-32685185D01*
X23390710Y-32627533D01*
X23098095Y-32532456D01*
X22819703Y-32401455D01*
X22559926Y-32236596D01*
X22322860Y-32040477D01*
X22112243Y-31816193D01*
X21931397Y-31567280D01*
X21783174Y-31297663D01*
X21669912Y-31011596D01*
X21593396Y-30713588D01*
X21554835Y-30408341D01*
X21554835Y-30100667D01*
X21593396Y-29795420D01*
X21669912Y-29497412D01*
X21783174Y-29211345D01*
X21931397Y-28941728D01*
X22112243Y-28692815D01*
X22322860Y-28468531D01*
X22559926Y-28272412D01*
X22819703Y-28107553D01*
X23098095Y-27976552D01*
X23390710Y-27881475D01*
X23692934Y-27823823D01*
X24000000Y-27804504D01*
X24045938Y-27807394D01*
X24045938Y-28500198D01*
X23786131Y-28512678D01*
X23531022Y-28563422D01*
X23286215Y-28651317D01*
X23057089Y-28774430D01*
X22848677Y-28930059D01*
X22665558Y-29114783D01*
X22511754Y-29324545D01*
X22390645Y-29554736D01*
X22304890Y-29800301D01*
X22256374Y-30055843D01*
X22246162Y-30315749D01*
X22274479Y-30574310D01*
X22340703Y-30825846D01*
X22443378Y-31064830D01*
X22580250Y-31286012D01*
X22748312Y-31484535D01*
X22943871Y-31656035D01*
X23162631Y-31796746D01*
X23399786Y-31903577D01*
X23650128Y-31974181D01*
X23908155Y-32007006D01*
X24000000Y-32009411D01*
X24259392Y-31990135D01*
X24513085Y-31932730D01*
X24755507Y-31838457D01*
X24981332Y-31709388D01*
X25185598Y-31548357D01*
X25363819Y-31358903D01*
X25512079Y-31145187D01*
X25627121Y-30911904D01*
X25706419Y-30664179D01*
X25748229Y-30407454D01*
X25751634Y-30147369D01*
X25716558Y-29889638D01*
X25643773Y-29639923D01*
X25534876Y-29403708D01*
X25392261Y-29186184D01*
X25219061Y-28992130D01*
X25019080Y-28825807D01*
X24796711Y-28690870D01*
X24556840Y-28590284D01*
X24304736Y-28526258D01*
X24045938Y-28500198D01*
X24045938Y-27807394D01*
X24307066Y-27823823D01*
X24609290Y-27881475D01*
X24901905Y-27976552D01*
X25180297Y-28107553D01*
X25440074Y-28272412D01*
X25677140Y-28468531D01*
X25887757Y-28692815D01*
X26068603Y-28941728D01*
X26216826Y-29211345D01*
X26330088Y-29497412D01*
X26406604Y-29795420D01*
X26445165Y-30100667D01*
X26445165Y-30408341D01*
X26406604Y-30713588D01*
G37*
G36*
X50906604Y-30713588D02*
G01*
X50830088Y-31011596D01*
X50716826Y-31297663D01*
X50568603Y-31567280D01*
X50387757Y-31816193D01*
X50177140Y-32040477D01*
X49940074Y-32236596D01*
X49680297Y-32401455D01*
X49401905Y-32532456D01*
X49109290Y-32627533D01*
X48807066Y-32685185D01*
X48500000Y-32704504D01*
X48192934Y-32685185D01*
X47890710Y-32627533D01*
X47598095Y-32532456D01*
X47319703Y-32401455D01*
X47059926Y-32236596D01*
X46822860Y-32040477D01*
X46612243Y-31816193D01*
X46431397Y-31567280D01*
X46283174Y-31297663D01*
X46169912Y-31011596D01*
X46093396Y-30713588D01*
X46054835Y-30408341D01*
X46054835Y-30100667D01*
X46093396Y-29795420D01*
X46169912Y-29497412D01*
X46283174Y-29211345D01*
X46431397Y-28941728D01*
X46612243Y-28692815D01*
X46822860Y-28468531D01*
X47059926Y-28272412D01*
X47319703Y-28107553D01*
X47598095Y-27976552D01*
X47890710Y-27881475D01*
X48192934Y-27823823D01*
X48500000Y-27804504D01*
X48545938Y-27807394D01*
X48545938Y-28500198D01*
X48286131Y-28512678D01*
X48031022Y-28563422D01*
X47786215Y-28651317D01*
X47557089Y-28774430D01*
X47348677Y-28930059D01*
X47165558Y-29114783D01*
X47011754Y-29324545D01*
X46890645Y-29554736D01*
X46804890Y-29800301D01*
X46756374Y-30055843D01*
X46746162Y-30315749D01*
X46774479Y-30574310D01*
X46840703Y-30825846D01*
X46943378Y-31064830D01*
X47080250Y-31286012D01*
X47248312Y-31484535D01*
X47443871Y-31656035D01*
X47662631Y-31796746D01*
X47899786Y-31903577D01*
X48150128Y-31974181D01*
X48408155Y-32007006D01*
X48500000Y-32009411D01*
X48759392Y-31990135D01*
X49013085Y-31932730D01*
X49255507Y-31838457D01*
X49481332Y-31709388D01*
X49685598Y-31548357D01*
X49863819Y-31358903D01*
X50012079Y-31145187D01*
X50127121Y-30911904D01*
X50206419Y-30664179D01*
X50248229Y-30407454D01*
X50251634Y-30147369D01*
X50216558Y-29889638D01*
X50143773Y-29639923D01*
X50034876Y-29403708D01*
X49892261Y-29186184D01*
X49719061Y-28992130D01*
X49519080Y-28825807D01*
X49296711Y-28690870D01*
X49056840Y-28590284D01*
X48804736Y-28526258D01*
X48545938Y-28500198D01*
X48545938Y-27807394D01*
X48807066Y-27823823D01*
X49109290Y-27881475D01*
X49401905Y-27976552D01*
X49680297Y-28107553D01*
X49940074Y-28272412D01*
X50177140Y-28468531D01*
X50387757Y-28692815D01*
X50568603Y-28941728D01*
X50716826Y-29211345D01*
X50830088Y-29497412D01*
X50906604Y-29795420D01*
X50945165Y-30100667D01*
X50945165Y-30408341D01*
X50906604Y-30713588D01*
G37*
G36*
X44906604Y-10713588D02*
G01*
X44830088Y-11011596D01*
X44716826Y-11297663D01*
X44568603Y-11567280D01*
X44387757Y-11816193D01*
X44177140Y-12040477D01*
X43940074Y-12236596D01*
X43680297Y-12401455D01*
X43401905Y-12532456D01*
X43109290Y-12627533D01*
X42807066Y-12685185D01*
X42500000Y-12704504D01*
X42192934Y-12685185D01*
X41890710Y-12627533D01*
X41598095Y-12532456D01*
X41319703Y-12401455D01*
X41059926Y-12236596D01*
X40822860Y-12040477D01*
X40612243Y-11816193D01*
X40431397Y-11567280D01*
X40283174Y-11297663D01*
X40169912Y-11011596D01*
X40093396Y-10713588D01*
X40054835Y-10408341D01*
X40054835Y-10100667D01*
X40093396Y-9795420D01*
X40169912Y-9497412D01*
X40283174Y-9211345D01*
X40431397Y-8941728D01*
X40612243Y-8692815D01*
X40822860Y-8468531D01*
X41059926Y-8272412D01*
X41319703Y-8107553D01*
X41598095Y-7976552D01*
X41890710Y-7881475D01*
X42192934Y-7823823D01*
X42500000Y-7804504D01*
X42545938Y-7807394D01*
X42545938Y-8500198D01*
X42286131Y-8512678D01*
X42031022Y-8563422D01*
X41786215Y-8651317D01*
X41557089Y-8774430D01*
X41348677Y-8930059D01*
X41165558Y-9114783D01*
X41011754Y-9324545D01*
X40890645Y-9554736D01*
X40804890Y-9800301D01*
X40756374Y-10055843D01*
X40746162Y-10315749D01*
X40774479Y-10574310D01*
X40840703Y-10825846D01*
X40943378Y-11064830D01*
X41080250Y-11286012D01*
X41248312Y-11484535D01*
X41443871Y-11656035D01*
X41662631Y-11796746D01*
X41899786Y-11903577D01*
X42150128Y-11974181D01*
X42408155Y-12007006D01*
X42500000Y-12009411D01*
X42759392Y-11990135D01*
X43013085Y-11932730D01*
X43255507Y-11838457D01*
X43481332Y-11709388D01*
X43685598Y-11548357D01*
X43863819Y-11358903D01*
X44012079Y-11145187D01*
X44127121Y-10911904D01*
X44206419Y-10664179D01*
X44248229Y-10407454D01*
X44251634Y-10147369D01*
X44216558Y-9889638D01*
X44143773Y-9639923D01*
X44034876Y-9403708D01*
X43892261Y-9186184D01*
X43719061Y-8992130D01*
X43519080Y-8825807D01*
X43296711Y-8690870D01*
X43056840Y-8590284D01*
X42804736Y-8526258D01*
X42545938Y-8500198D01*
X42545938Y-7807394D01*
X42807066Y-7823823D01*
X43109290Y-7881475D01*
X43401905Y-7976552D01*
X43680297Y-8107553D01*
X43940074Y-8272412D01*
X44177140Y-8468531D01*
X44387757Y-8692815D01*
X44568603Y-8941728D01*
X44716826Y-9211345D01*
X44830088Y-9497412D01*
X44906604Y-9795420D01*
X44945165Y-10100667D01*
X44945165Y-10408341D01*
X44906604Y-10713588D01*
G37*
G36*
X20906604Y-30713588D02*
G01*
X20830088Y-31011596D01*
X20716826Y-31297663D01*
X20568603Y-31567280D01*
X20387757Y-31816193D01*
X20177140Y-32040477D01*
X19940074Y-32236596D01*
X19680297Y-32401455D01*
X19401905Y-32532456D01*
X19109290Y-32627533D01*
X18807066Y-32685185D01*
X18500000Y-32704504D01*
X18192934Y-32685185D01*
X17890710Y-32627533D01*
X17598095Y-32532456D01*
X17319703Y-32401455D01*
X17059926Y-32236596D01*
X16822860Y-32040477D01*
X16612243Y-31816193D01*
X16431397Y-31567280D01*
X16283174Y-31297663D01*
X16169912Y-31011596D01*
X16093396Y-30713588D01*
X16054835Y-30408341D01*
X16054835Y-30100667D01*
X16093396Y-29795420D01*
X16169912Y-29497412D01*
X16283174Y-29211345D01*
X16431397Y-28941728D01*
X16612243Y-28692815D01*
X16822860Y-28468531D01*
X17059926Y-28272412D01*
X17319703Y-28107553D01*
X17598095Y-27976552D01*
X17890710Y-27881475D01*
X18192934Y-27823823D01*
X18500000Y-27804504D01*
X18545938Y-27807394D01*
X18545938Y-28500198D01*
X18286131Y-28512678D01*
X18031022Y-28563422D01*
X17786215Y-28651317D01*
X17557089Y-28774430D01*
X17348677Y-28930059D01*
X17165558Y-29114783D01*
X17011754Y-29324545D01*
X16890645Y-29554736D01*
X16804890Y-29800301D01*
X16756374Y-30055843D01*
X16746162Y-30315749D01*
X16774479Y-30574310D01*
X16840703Y-30825846D01*
X16943378Y-31064830D01*
X17080250Y-31286012D01*
X17248312Y-31484535D01*
X17443871Y-31656035D01*
X17662631Y-31796746D01*
X17899786Y-31903577D01*
X18150128Y-31974181D01*
X18408155Y-32007006D01*
X18500000Y-32009411D01*
X18759392Y-31990135D01*
X19013085Y-31932730D01*
X19255507Y-31838457D01*
X19481332Y-31709388D01*
X19685598Y-31548357D01*
X19863819Y-31358903D01*
X20012079Y-31145187D01*
X20127121Y-30911904D01*
X20206419Y-30664179D01*
X20248229Y-30407454D01*
X20251634Y-30147369D01*
X20216558Y-29889638D01*
X20143773Y-29639923D01*
X20034876Y-29403708D01*
X19892261Y-29186184D01*
X19719061Y-28992130D01*
X19519080Y-28825807D01*
X19296711Y-28690870D01*
X19056840Y-28590284D01*
X18804736Y-28526258D01*
X18545938Y-28500198D01*
X18545938Y-27807394D01*
X18807066Y-27823823D01*
X19109290Y-27881475D01*
X19401905Y-27976552D01*
X19680297Y-28107553D01*
X19940074Y-28272412D01*
X20177140Y-28468531D01*
X20387757Y-28692815D01*
X20568603Y-28941728D01*
X20716826Y-29211345D01*
X20830088Y-29497412D01*
X20906604Y-29795420D01*
X20945165Y-30100667D01*
X20945165Y-30408341D01*
X20906604Y-30713588D01*
G37*
G36*
X48406604Y-24213588D02*
G01*
X48330088Y-24511596D01*
X48216826Y-24797663D01*
X48068603Y-25067280D01*
X47887757Y-25316193D01*
X47677140Y-25540477D01*
X47440074Y-25736596D01*
X47180297Y-25901455D01*
X46901905Y-26032456D01*
X46609290Y-26127533D01*
X46307066Y-26185185D01*
X46000000Y-26204504D01*
X45692934Y-26185185D01*
X45390710Y-26127533D01*
X45098095Y-26032456D01*
X44819703Y-25901455D01*
X44559926Y-25736596D01*
X44322860Y-25540477D01*
X44112243Y-25316193D01*
X43931397Y-25067280D01*
X43783174Y-24797663D01*
X43669912Y-24511596D01*
X43593396Y-24213588D01*
X43554835Y-23908341D01*
X43554835Y-23600667D01*
X43593396Y-23295420D01*
X43669912Y-22997412D01*
X43783174Y-22711345D01*
X43931397Y-22441728D01*
X44112243Y-22192815D01*
X44322860Y-21968531D01*
X44559926Y-21772412D01*
X44819703Y-21607553D01*
X45098095Y-21476552D01*
X45390710Y-21381475D01*
X45692934Y-21323823D01*
X46000000Y-21304504D01*
X46045938Y-21307394D01*
X46045938Y-22000198D01*
X45786131Y-22012678D01*
X45531022Y-22063422D01*
X45286215Y-22151317D01*
X45057089Y-22274430D01*
X44848677Y-22430059D01*
X44665558Y-22614783D01*
X44511754Y-22824545D01*
X44390645Y-23054736D01*
X44304890Y-23300301D01*
X44256374Y-23555843D01*
X44246162Y-23815749D01*
X44274479Y-24074310D01*
X44340703Y-24325846D01*
X44443378Y-24564830D01*
X44580250Y-24786012D01*
X44748312Y-24984535D01*
X44943871Y-25156035D01*
X45162631Y-25296746D01*
X45399786Y-25403577D01*
X45650128Y-25474181D01*
X45908155Y-25507006D01*
X46000000Y-25509411D01*
X46259392Y-25490135D01*
X46513085Y-25432730D01*
X46755507Y-25338457D01*
X46981332Y-25209388D01*
X47185598Y-25048357D01*
X47363819Y-24858903D01*
X47512079Y-24645187D01*
X47627121Y-24411904D01*
X47706419Y-24164179D01*
X47748229Y-23907454D01*
X47751634Y-23647369D01*
X47716558Y-23389638D01*
X47643773Y-23139923D01*
X47534876Y-22903708D01*
X47392261Y-22686184D01*
X47219061Y-22492130D01*
X47019080Y-22325807D01*
X46796711Y-22190870D01*
X46556840Y-22090284D01*
X46304736Y-22026258D01*
X46045938Y-22000198D01*
X46045938Y-21307394D01*
X46307066Y-21323823D01*
X46609290Y-21381475D01*
X46901905Y-21476552D01*
X47180297Y-21607553D01*
X47440074Y-21772412D01*
X47677140Y-21968531D01*
X47887757Y-22192815D01*
X48068603Y-22441728D01*
X48216826Y-22711345D01*
X48330088Y-22997412D01*
X48406604Y-23295420D01*
X48445165Y-23600667D01*
X48445165Y-23908341D01*
X48406604Y-24213588D01*
G37*
G36*
X31906604Y-17713588D02*
G01*
X31830088Y-18011596D01*
X31716826Y-18297663D01*
X31568603Y-18567280D01*
X31387757Y-18816193D01*
X31177140Y-19040477D01*
X30940074Y-19236596D01*
X30680297Y-19401455D01*
X30401905Y-19532456D01*
X30109290Y-19627533D01*
X29807066Y-19685185D01*
X29500000Y-19704504D01*
X29192934Y-19685185D01*
X28890710Y-19627533D01*
X28598095Y-19532456D01*
X28319703Y-19401455D01*
X28059926Y-19236596D01*
X27822860Y-19040477D01*
X27612243Y-18816193D01*
X27431397Y-18567280D01*
X27283174Y-18297663D01*
X27169912Y-18011596D01*
X27093396Y-17713588D01*
X27054835Y-17408341D01*
X27054835Y-17100667D01*
X27093396Y-16795420D01*
X27169912Y-16497412D01*
X27283174Y-16211345D01*
X27431397Y-15941728D01*
X27612243Y-15692815D01*
X27822860Y-15468531D01*
X28059926Y-15272412D01*
X28319703Y-15107553D01*
X28598095Y-14976552D01*
X28890710Y-14881475D01*
X29192934Y-14823823D01*
X29500000Y-14804504D01*
X29545938Y-14807394D01*
X29545938Y-15500198D01*
X29286131Y-15512678D01*
X29031022Y-15563422D01*
X28786215Y-15651317D01*
X28557089Y-15774430D01*
X28348677Y-15930059D01*
X28165558Y-16114783D01*
X28011754Y-16324545D01*
X27890645Y-16554736D01*
X27804890Y-16800301D01*
X27756374Y-17055843D01*
X27746162Y-17315749D01*
X27774479Y-17574310D01*
X27840703Y-17825846D01*
X27943378Y-18064830D01*
X28080250Y-18286012D01*
X28248312Y-18484535D01*
X28443871Y-18656035D01*
X28662631Y-18796746D01*
X28899786Y-18903577D01*
X29150128Y-18974181D01*
X29408155Y-19007006D01*
X29500000Y-19009411D01*
X29759392Y-18990135D01*
X30013085Y-18932730D01*
X30255507Y-18838457D01*
X30481332Y-18709388D01*
X30685598Y-18548357D01*
X30863819Y-18358903D01*
X31012079Y-18145187D01*
X31127121Y-17911904D01*
X31206419Y-17664179D01*
X31248229Y-17407454D01*
X31251634Y-17147369D01*
X31216558Y-16889638D01*
X31143773Y-16639923D01*
X31034876Y-16403708D01*
X30892261Y-16186184D01*
X30719061Y-15992130D01*
X30519080Y-15825807D01*
X30296711Y-15690870D01*
X30056840Y-15590284D01*
X29804736Y-15526258D01*
X29545938Y-15500198D01*
X29545938Y-14807394D01*
X29807066Y-14823823D01*
X30109290Y-14881475D01*
X30401905Y-14976552D01*
X30680297Y-15107553D01*
X30940074Y-15272412D01*
X31177140Y-15468531D01*
X31387757Y-15692815D01*
X31568603Y-15941728D01*
X31716826Y-16211345D01*
X31830088Y-16497412D01*
X31906604Y-16795420D01*
X31945165Y-17100667D01*
X31945165Y-17408341D01*
X31906604Y-17713588D01*
G37*
G36*
X20914599Y-17713588D02*
G01*
X20838083Y-18011596D01*
X20724821Y-18297663D01*
X20576598Y-18567280D01*
X20395752Y-18816193D01*
X20185135Y-19040477D01*
X19948069Y-19236596D01*
X19688292Y-19401455D01*
X19409900Y-19532456D01*
X19117285Y-19627533D01*
X18815061Y-19685185D01*
X18507995Y-19704504D01*
X18200929Y-19685185D01*
X17898705Y-19627533D01*
X17606090Y-19532456D01*
X17327698Y-19401455D01*
X17067921Y-19236596D01*
X16830855Y-19040477D01*
X16620238Y-18816193D01*
X16439392Y-18567280D01*
X16291169Y-18297663D01*
X16177907Y-18011596D01*
X16101391Y-17713588D01*
X16062830Y-17408341D01*
X16062830Y-17100667D01*
X16101391Y-16795420D01*
X16177907Y-16497412D01*
X16291169Y-16211345D01*
X16439392Y-15941728D01*
X16620238Y-15692815D01*
X16830855Y-15468531D01*
X17067921Y-15272412D01*
X17327698Y-15107553D01*
X17606090Y-14976552D01*
X17898705Y-14881475D01*
X18200929Y-14823823D01*
X18507995Y-14804504D01*
X18553933Y-14807394D01*
X18553933Y-15500198D01*
X18294126Y-15512678D01*
X18039017Y-15563422D01*
X17794210Y-15651317D01*
X17565084Y-15774430D01*
X17356672Y-15930059D01*
X17173553Y-16114783D01*
X17019749Y-16324545D01*
X16898640Y-16554736D01*
X16812885Y-16800301D01*
X16764369Y-17055843D01*
X16754157Y-17315749D01*
X16782474Y-17574310D01*
X16848698Y-17825846D01*
X16951373Y-18064830D01*
X17088245Y-18286012D01*
X17256307Y-18484535D01*
X17451866Y-18656035D01*
X17670626Y-18796746D01*
X17907781Y-18903577D01*
X18158123Y-18974181D01*
X18416150Y-19007006D01*
X18507995Y-19009411D01*
X18767387Y-18990135D01*
X19021080Y-18932730D01*
X19263502Y-18838457D01*
X19489327Y-18709388D01*
X19693593Y-18548357D01*
X19871814Y-18358903D01*
X20020074Y-18145187D01*
X20135116Y-17911904D01*
X20214414Y-17664179D01*
X20256224Y-17407454D01*
X20259629Y-17147369D01*
X20224553Y-16889638D01*
X20151768Y-16639923D01*
X20042871Y-16403708D01*
X19900256Y-16186184D01*
X19727056Y-15992130D01*
X19527075Y-15825807D01*
X19304706Y-15690870D01*
X19064835Y-15590284D01*
X18812731Y-15526258D01*
X18553933Y-15500198D01*
X18553933Y-14807394D01*
X18815061Y-14823823D01*
X19117285Y-14881475D01*
X19409900Y-14976552D01*
X19688292Y-15107553D01*
X19948069Y-15272412D01*
X20185135Y-15468531D01*
X20395752Y-15692815D01*
X20576598Y-15941728D01*
X20724821Y-16211345D01*
X20838083Y-16497412D01*
X20914599Y-16795420D01*
X20953160Y-17100667D01*
X20953160Y-17408341D01*
X20914599Y-17713588D01*
G37*
G36*
X12906604Y-36713588D02*
G01*
X12830088Y-37011596D01*
X12716826Y-37297663D01*
X12568603Y-37567280D01*
X12387757Y-37816193D01*
X12177140Y-38040477D01*
X11940074Y-38236596D01*
X11680297Y-38401455D01*
X11401905Y-38532456D01*
X11109290Y-38627533D01*
X10807066Y-38685185D01*
X10500000Y-38704504D01*
X10192934Y-38685185D01*
X9890710Y-38627533D01*
X9598095Y-38532456D01*
X9319703Y-38401455D01*
X9059926Y-38236596D01*
X8822860Y-38040477D01*
X8612243Y-37816193D01*
X8431397Y-37567280D01*
X8283174Y-37297663D01*
X8169912Y-37011596D01*
X8093396Y-36713588D01*
X8054835Y-36408341D01*
X8054835Y-36100667D01*
X8093396Y-35795420D01*
X8169912Y-35497412D01*
X8283174Y-35211345D01*
X8431397Y-34941728D01*
X8612243Y-34692815D01*
X8822860Y-34468531D01*
X9059926Y-34272412D01*
X9319703Y-34107553D01*
X9598095Y-33976552D01*
X9890710Y-33881475D01*
X10192934Y-33823823D01*
X10500000Y-33804504D01*
X10545938Y-33807394D01*
X10545938Y-34500198D01*
X10286131Y-34512678D01*
X10031022Y-34563422D01*
X9786215Y-34651317D01*
X9557089Y-34774430D01*
X9348677Y-34930059D01*
X9165558Y-35114783D01*
X9011754Y-35324545D01*
X8890645Y-35554736D01*
X8804890Y-35800301D01*
X8756374Y-36055843D01*
X8746162Y-36315749D01*
X8774479Y-36574310D01*
X8840703Y-36825846D01*
X8943378Y-37064830D01*
X9080250Y-37286012D01*
X9248312Y-37484535D01*
X9443871Y-37656035D01*
X9662631Y-37796746D01*
X9899786Y-37903577D01*
X10150128Y-37974181D01*
X10408155Y-38007006D01*
X10500000Y-38009411D01*
X10759392Y-37990135D01*
X11013085Y-37932730D01*
X11255507Y-37838457D01*
X11481332Y-37709388D01*
X11685598Y-37548357D01*
X11863819Y-37358903D01*
X12012079Y-37145187D01*
X12127121Y-36911904D01*
X12206419Y-36664179D01*
X12248229Y-36407454D01*
X12251634Y-36147369D01*
X12216558Y-35889638D01*
X12143773Y-35639923D01*
X12034876Y-35403708D01*
X11892261Y-35186184D01*
X11719061Y-34992130D01*
X11519080Y-34825807D01*
X11296711Y-34690870D01*
X11056840Y-34590284D01*
X10804736Y-34526258D01*
X10545938Y-34500198D01*
X10545938Y-33807394D01*
X10807066Y-33823823D01*
X11109290Y-33881475D01*
X11401905Y-33976552D01*
X11680297Y-34107553D01*
X11940074Y-34272412D01*
X12177140Y-34468531D01*
X12387757Y-34692815D01*
X12568603Y-34941728D01*
X12716826Y-35211345D01*
X12830088Y-35497412D01*
X12906604Y-35795420D01*
X12945165Y-36100667D01*
X12945165Y-36408341D01*
X12906604Y-36713588D01*
G37*
G36*
X37406604Y-24213588D02*
G01*
X37330088Y-24511596D01*
X37216826Y-24797663D01*
X37068603Y-25067280D01*
X36887757Y-25316193D01*
X36677140Y-25540477D01*
X36440074Y-25736596D01*
X36180297Y-25901455D01*
X35901905Y-26032456D01*
X35609290Y-26127533D01*
X35307066Y-26185185D01*
X35000000Y-26204504D01*
X34692934Y-26185185D01*
X34390710Y-26127533D01*
X34098095Y-26032456D01*
X33819703Y-25901455D01*
X33559926Y-25736596D01*
X33322860Y-25540477D01*
X33112243Y-25316193D01*
X32931397Y-25067280D01*
X32783174Y-24797663D01*
X32669912Y-24511596D01*
X32593396Y-24213588D01*
X32554835Y-23908341D01*
X32554835Y-23600667D01*
X32593396Y-23295420D01*
X32669912Y-22997412D01*
X32783174Y-22711345D01*
X32931397Y-22441728D01*
X33112243Y-22192815D01*
X33322860Y-21968531D01*
X33559926Y-21772412D01*
X33819703Y-21607553D01*
X34098095Y-21476552D01*
X34390710Y-21381475D01*
X34692934Y-21323823D01*
X35000000Y-21304504D01*
X35045938Y-21307394D01*
X35045938Y-22000198D01*
X34786131Y-22012678D01*
X34531022Y-22063422D01*
X34286215Y-22151317D01*
X34057089Y-22274430D01*
X33848677Y-22430059D01*
X33665558Y-22614783D01*
X33511754Y-22824545D01*
X33390645Y-23054736D01*
X33304890Y-23300301D01*
X33256374Y-23555843D01*
X33246162Y-23815749D01*
X33274479Y-24074310D01*
X33340703Y-24325846D01*
X33443378Y-24564830D01*
X33580250Y-24786012D01*
X33748312Y-24984535D01*
X33943871Y-25156035D01*
X34162631Y-25296746D01*
X34399786Y-25403577D01*
X34650128Y-25474181D01*
X34908155Y-25507006D01*
X35000000Y-25509411D01*
X35259392Y-25490135D01*
X35513085Y-25432730D01*
X35755507Y-25338457D01*
X35981332Y-25209388D01*
X36185598Y-25048357D01*
X36363819Y-24858903D01*
X36512079Y-24645187D01*
X36627121Y-24411904D01*
X36706419Y-24164179D01*
X36748229Y-23907454D01*
X36751634Y-23647369D01*
X36716558Y-23389638D01*
X36643773Y-23139923D01*
X36534876Y-22903708D01*
X36392261Y-22686184D01*
X36219061Y-22492130D01*
X36019080Y-22325807D01*
X35796711Y-22190870D01*
X35556840Y-22090284D01*
X35304736Y-22026258D01*
X35045938Y-22000198D01*
X35045938Y-21307394D01*
X35307066Y-21323823D01*
X35609290Y-21381475D01*
X35901905Y-21476552D01*
X36180297Y-21607553D01*
X36440074Y-21772412D01*
X36677140Y-21968531D01*
X36887757Y-22192815D01*
X37068603Y-22441728D01*
X37216826Y-22711345D01*
X37330088Y-22997412D01*
X37406604Y-23295420D01*
X37445165Y-23600667D01*
X37445165Y-23908341D01*
X37406604Y-24213588D01*
G37*
G36*
X53906604Y-24213588D02*
G01*
X53830088Y-24511596D01*
X53716826Y-24797663D01*
X53568603Y-25067280D01*
X53387757Y-25316193D01*
X53177140Y-25540477D01*
X52940074Y-25736596D01*
X52680297Y-25901455D01*
X52401905Y-26032456D01*
X52109290Y-26127533D01*
X51807066Y-26185185D01*
X51500000Y-26204504D01*
X51192934Y-26185185D01*
X50890710Y-26127533D01*
X50598095Y-26032456D01*
X50319703Y-25901455D01*
X50059926Y-25736596D01*
X49822860Y-25540477D01*
X49612243Y-25316193D01*
X49431397Y-25067280D01*
X49283174Y-24797663D01*
X49169912Y-24511596D01*
X49093396Y-24213588D01*
X49054835Y-23908341D01*
X49054835Y-23600667D01*
X49093396Y-23295420D01*
X49169912Y-22997412D01*
X49283174Y-22711345D01*
X49431397Y-22441728D01*
X49612243Y-22192815D01*
X49822860Y-21968531D01*
X50059926Y-21772412D01*
X50319703Y-21607553D01*
X50598095Y-21476552D01*
X50890710Y-21381475D01*
X51192934Y-21323823D01*
X51500000Y-21304504D01*
X51545938Y-21307394D01*
X51545938Y-22000198D01*
X51286131Y-22012678D01*
X51031022Y-22063422D01*
X50786215Y-22151317D01*
X50557089Y-22274430D01*
X50348677Y-22430059D01*
X50165558Y-22614783D01*
X50011754Y-22824545D01*
X49890645Y-23054736D01*
X49804890Y-23300301D01*
X49756374Y-23555843D01*
X49746162Y-23815749D01*
X49774479Y-24074310D01*
X49840703Y-24325846D01*
X49943378Y-24564830D01*
X50080250Y-24786012D01*
X50248312Y-24984535D01*
X50443871Y-25156035D01*
X50662631Y-25296746D01*
X50899786Y-25403577D01*
X51150128Y-25474181D01*
X51408155Y-25507006D01*
X51500000Y-25509411D01*
X51759392Y-25490135D01*
X52013085Y-25432730D01*
X52255507Y-25338457D01*
X52481332Y-25209388D01*
X52685598Y-25048357D01*
X52863819Y-24858903D01*
X53012079Y-24645187D01*
X53127121Y-24411904D01*
X53206419Y-24164179D01*
X53248229Y-23907454D01*
X53251634Y-23647369D01*
X53216558Y-23389638D01*
X53143773Y-23139923D01*
X53034876Y-22903708D01*
X52892261Y-22686184D01*
X52719061Y-22492130D01*
X52519080Y-22325807D01*
X52296711Y-22190870D01*
X52056840Y-22090284D01*
X51804736Y-22026258D01*
X51545938Y-22000198D01*
X51545938Y-21307394D01*
X51807066Y-21323823D01*
X52109290Y-21381475D01*
X52401905Y-21476552D01*
X52680297Y-21607553D01*
X52940074Y-21772412D01*
X53177140Y-21968531D01*
X53387757Y-22192815D01*
X53568603Y-22441728D01*
X53716826Y-22711345D01*
X53830088Y-22997412D01*
X53906604Y-23295420D01*
X53945165Y-23600667D01*
X53945165Y-23908341D01*
X53906604Y-24213588D01*
G37*
G36*
X9906604Y-30713588D02*
G01*
X9830088Y-31011596D01*
X9716826Y-31297663D01*
X9568603Y-31567280D01*
X9387757Y-31816193D01*
X9177140Y-32040477D01*
X8940074Y-32236596D01*
X8680297Y-32401455D01*
X8401905Y-32532456D01*
X8109290Y-32627533D01*
X7807066Y-32685185D01*
X7500000Y-32704504D01*
X7192934Y-32685185D01*
X6890710Y-32627533D01*
X6598095Y-32532456D01*
X6319703Y-32401455D01*
X6059926Y-32236596D01*
X5822860Y-32040477D01*
X5612243Y-31816193D01*
X5431397Y-31567280D01*
X5283174Y-31297663D01*
X5169912Y-31011596D01*
X5093396Y-30713588D01*
X5054835Y-30408341D01*
X5054835Y-30100667D01*
X5093396Y-29795420D01*
X5169912Y-29497412D01*
X5283174Y-29211345D01*
X5431397Y-28941728D01*
X5612243Y-28692815D01*
X5822860Y-28468531D01*
X6059926Y-28272412D01*
X6319703Y-28107553D01*
X6598095Y-27976552D01*
X6890710Y-27881475D01*
X7192934Y-27823823D01*
X7500000Y-27804504D01*
X7545938Y-27807394D01*
X7545938Y-28500198D01*
X7286131Y-28512678D01*
X7031022Y-28563422D01*
X6786215Y-28651317D01*
X6557089Y-28774430D01*
X6348677Y-28930059D01*
X6165558Y-29114783D01*
X6011754Y-29324545D01*
X5890645Y-29554736D01*
X5804890Y-29800301D01*
X5756374Y-30055843D01*
X5746162Y-30315749D01*
X5774479Y-30574310D01*
X5840703Y-30825846D01*
X5943378Y-31064830D01*
X6080250Y-31286012D01*
X6248312Y-31484535D01*
X6443871Y-31656035D01*
X6662631Y-31796746D01*
X6899786Y-31903577D01*
X7150128Y-31974181D01*
X7408155Y-32007006D01*
X7500000Y-32009411D01*
X7759392Y-31990135D01*
X8013085Y-31932730D01*
X8255507Y-31838457D01*
X8481332Y-31709388D01*
X8685598Y-31548357D01*
X8863819Y-31358903D01*
X9012079Y-31145187D01*
X9127121Y-30911904D01*
X9206419Y-30664179D01*
X9248229Y-30407454D01*
X9251634Y-30147369D01*
X9216558Y-29889638D01*
X9143773Y-29639923D01*
X9034876Y-29403708D01*
X8892261Y-29186184D01*
X8719061Y-28992130D01*
X8519080Y-28825807D01*
X8296711Y-28690870D01*
X8056840Y-28590284D01*
X7804736Y-28526258D01*
X7545938Y-28500198D01*
X7545938Y-27807394D01*
X7807066Y-27823823D01*
X8109290Y-27881475D01*
X8401905Y-27976552D01*
X8680297Y-28107553D01*
X8940074Y-28272412D01*
X9177140Y-28468531D01*
X9387757Y-28692815D01*
X9568603Y-28941728D01*
X9716826Y-29211345D01*
X9830088Y-29497412D01*
X9906604Y-29795420D01*
X9945165Y-30100667D01*
X9945165Y-30408341D01*
X9906604Y-30713588D01*
G37*
G36*
X37406604Y-17713588D02*
G01*
X37330088Y-18011596D01*
X37216826Y-18297663D01*
X37068603Y-18567280D01*
X36887757Y-18816193D01*
X36677140Y-19040477D01*
X36440074Y-19236596D01*
X36180297Y-19401455D01*
X35901905Y-19532456D01*
X35609290Y-19627533D01*
X35307066Y-19685185D01*
X35000000Y-19704504D01*
X34692934Y-19685185D01*
X34390710Y-19627533D01*
X34098095Y-19532456D01*
X33819703Y-19401455D01*
X33559926Y-19236596D01*
X33322860Y-19040477D01*
X33112243Y-18816193D01*
X32931397Y-18567280D01*
X32783174Y-18297663D01*
X32669912Y-18011596D01*
X32593396Y-17713588D01*
X32554835Y-17408341D01*
X32554835Y-17100667D01*
X32593396Y-16795420D01*
X32669912Y-16497412D01*
X32783174Y-16211345D01*
X32931397Y-15941728D01*
X33112243Y-15692815D01*
X33322860Y-15468531D01*
X33559926Y-15272412D01*
X33819703Y-15107553D01*
X34098095Y-14976552D01*
X34390710Y-14881475D01*
X34692934Y-14823823D01*
X35000000Y-14804504D01*
X35045938Y-14807394D01*
X35045938Y-15500198D01*
X34786131Y-15512678D01*
X34531022Y-15563422D01*
X34286215Y-15651317D01*
X34057089Y-15774430D01*
X33848677Y-15930059D01*
X33665558Y-16114783D01*
X33511754Y-16324545D01*
X33390645Y-16554736D01*
X33304890Y-16800301D01*
X33256374Y-17055843D01*
X33246162Y-17315749D01*
X33274479Y-17574310D01*
X33340703Y-17825846D01*
X33443378Y-18064830D01*
X33580250Y-18286012D01*
X33748312Y-18484535D01*
X33943871Y-18656035D01*
X34162631Y-18796746D01*
X34399786Y-18903577D01*
X34650128Y-18974181D01*
X34908155Y-19007006D01*
X35000000Y-19009411D01*
X35259392Y-18990135D01*
X35513085Y-18932730D01*
X35755507Y-18838457D01*
X35981332Y-18709388D01*
X36185598Y-18548357D01*
X36363819Y-18358903D01*
X36512079Y-18145187D01*
X36627121Y-17911904D01*
X36706419Y-17664179D01*
X36748229Y-17407454D01*
X36751634Y-17147369D01*
X36716558Y-16889638D01*
X36643773Y-16639923D01*
X36534876Y-16403708D01*
X36392261Y-16186184D01*
X36219061Y-15992130D01*
X36019080Y-15825807D01*
X35796711Y-15690870D01*
X35556840Y-15590284D01*
X35304736Y-15526258D01*
X35045938Y-15500198D01*
X35045938Y-14807394D01*
X35307066Y-14823823D01*
X35609290Y-14881475D01*
X35901905Y-14976552D01*
X36180297Y-15107553D01*
X36440074Y-15272412D01*
X36677140Y-15468531D01*
X36887757Y-15692815D01*
X37068603Y-15941728D01*
X37216826Y-16211345D01*
X37330088Y-16497412D01*
X37406604Y-16795420D01*
X37445165Y-17100667D01*
X37445165Y-17408341D01*
X37406604Y-17713588D01*
G37*
G36*
X28406604Y-10713588D02*
G01*
X28330088Y-11011596D01*
X28216826Y-11297663D01*
X28068603Y-11567280D01*
X27887757Y-11816193D01*
X27677140Y-12040477D01*
X27440074Y-12236596D01*
X27180297Y-12401455D01*
X26901905Y-12532456D01*
X26609290Y-12627533D01*
X26307066Y-12685185D01*
X26000000Y-12704504D01*
X25692934Y-12685185D01*
X25390710Y-12627533D01*
X25098095Y-12532456D01*
X24819703Y-12401455D01*
X24559926Y-12236596D01*
X24322860Y-12040477D01*
X24112243Y-11816193D01*
X23931397Y-11567280D01*
X23783174Y-11297663D01*
X23669912Y-11011596D01*
X23593396Y-10713588D01*
X23554835Y-10408341D01*
X23554835Y-10100667D01*
X23593396Y-9795420D01*
X23669912Y-9497412D01*
X23783174Y-9211345D01*
X23931397Y-8941728D01*
X24112243Y-8692815D01*
X24322860Y-8468531D01*
X24559926Y-8272412D01*
X24819703Y-8107553D01*
X25098095Y-7976552D01*
X25390710Y-7881475D01*
X25692934Y-7823823D01*
X26000000Y-7804504D01*
X26045938Y-7807394D01*
X26045938Y-8500198D01*
X25786131Y-8512678D01*
X25531022Y-8563422D01*
X25286215Y-8651317D01*
X25057089Y-8774430D01*
X24848677Y-8930059D01*
X24665558Y-9114783D01*
X24511754Y-9324545D01*
X24390645Y-9554736D01*
X24304890Y-9800301D01*
X24256374Y-10055843D01*
X24246162Y-10315749D01*
X24274479Y-10574310D01*
X24340703Y-10825846D01*
X24443378Y-11064830D01*
X24580250Y-11286012D01*
X24748312Y-11484535D01*
X24943871Y-11656035D01*
X25162631Y-11796746D01*
X25399786Y-11903577D01*
X25650128Y-11974181D01*
X25908155Y-12007006D01*
X26000000Y-12009411D01*
X26259392Y-11990135D01*
X26513085Y-11932730D01*
X26755507Y-11838457D01*
X26981332Y-11709388D01*
X27185598Y-11548357D01*
X27363819Y-11358903D01*
X27512079Y-11145187D01*
X27627121Y-10911904D01*
X27706419Y-10664179D01*
X27748229Y-10407454D01*
X27751634Y-10147369D01*
X27716558Y-9889638D01*
X27643773Y-9639923D01*
X27534876Y-9403708D01*
X27392261Y-9186184D01*
X27219061Y-8992130D01*
X27019080Y-8825807D01*
X26796711Y-8690870D01*
X26556840Y-8590284D01*
X26304736Y-8526258D01*
X26045938Y-8500198D01*
X26045938Y-7807394D01*
X26307066Y-7823823D01*
X26609290Y-7881475D01*
X26901905Y-7976552D01*
X27180297Y-8107553D01*
X27440074Y-8272412D01*
X27677140Y-8468531D01*
X27887757Y-8692815D01*
X28068603Y-8941728D01*
X28216826Y-9211345D01*
X28330088Y-9497412D01*
X28406604Y-9795420D01*
X28445165Y-10100667D01*
X28445165Y-10408341D01*
X28406604Y-10713588D01*
G37*
G36*
X22906604Y-10713588D02*
G01*
X22830088Y-11011596D01*
X22716826Y-11297663D01*
X22568603Y-11567280D01*
X22387757Y-11816193D01*
X22177140Y-12040477D01*
X21940074Y-12236596D01*
X21680297Y-12401455D01*
X21401905Y-12532456D01*
X21109290Y-12627533D01*
X20807066Y-12685185D01*
X20500000Y-12704504D01*
X20192934Y-12685185D01*
X19890710Y-12627533D01*
X19598095Y-12532456D01*
X19319703Y-12401455D01*
X19059926Y-12236596D01*
X18822860Y-12040477D01*
X18612243Y-11816193D01*
X18431397Y-11567280D01*
X18283174Y-11297663D01*
X18169912Y-11011596D01*
X18093396Y-10713588D01*
X18054835Y-10408341D01*
X18054835Y-10100667D01*
X18093396Y-9795420D01*
X18169912Y-9497412D01*
X18283174Y-9211345D01*
X18431397Y-8941728D01*
X18612243Y-8692815D01*
X18822860Y-8468531D01*
X19059926Y-8272412D01*
X19319703Y-8107553D01*
X19598095Y-7976552D01*
X19890710Y-7881475D01*
X20192934Y-7823823D01*
X20500000Y-7804504D01*
X20545938Y-7807394D01*
X20545938Y-8500198D01*
X20286131Y-8512678D01*
X20031022Y-8563422D01*
X19786215Y-8651317D01*
X19557089Y-8774430D01*
X19348677Y-8930059D01*
X19165558Y-9114783D01*
X19011754Y-9324545D01*
X18890645Y-9554736D01*
X18804890Y-9800301D01*
X18756374Y-10055843D01*
X18746162Y-10315749D01*
X18774479Y-10574310D01*
X18840703Y-10825846D01*
X18943378Y-11064830D01*
X19080250Y-11286012D01*
X19248312Y-11484535D01*
X19443871Y-11656035D01*
X19662631Y-11796746D01*
X19899786Y-11903577D01*
X20150128Y-11974181D01*
X20408155Y-12007006D01*
X20500000Y-12009411D01*
X20759392Y-11990135D01*
X21013085Y-11932730D01*
X21255507Y-11838457D01*
X21481332Y-11709388D01*
X21685598Y-11548357D01*
X21863819Y-11358903D01*
X22012079Y-11145187D01*
X22127121Y-10911904D01*
X22206419Y-10664179D01*
X22248229Y-10407454D01*
X22251634Y-10147369D01*
X22216558Y-9889638D01*
X22143773Y-9639923D01*
X22034876Y-9403708D01*
X21892261Y-9186184D01*
X21719061Y-8992130D01*
X21519080Y-8825807D01*
X21296711Y-8690870D01*
X21056840Y-8590284D01*
X20804736Y-8526258D01*
X20545938Y-8500198D01*
X20545938Y-7807394D01*
X20807066Y-7823823D01*
X21109290Y-7881475D01*
X21401905Y-7976552D01*
X21680297Y-8107553D01*
X21940074Y-8272412D01*
X22177140Y-8468531D01*
X22387757Y-8692815D01*
X22568603Y-8941728D01*
X22716826Y-9211345D01*
X22830088Y-9497412D01*
X22906604Y-9795420D01*
X22945165Y-10100667D01*
X22945165Y-10408341D01*
X22906604Y-10713588D01*
G37*
G36*
X26406604Y-24213588D02*
G01*
X26330088Y-24511596D01*
X26216826Y-24797663D01*
X26068603Y-25067280D01*
X25887757Y-25316193D01*
X25677140Y-25540477D01*
X25440074Y-25736596D01*
X25180297Y-25901455D01*
X24901905Y-26032456D01*
X24609290Y-26127533D01*
X24307066Y-26185185D01*
X24000000Y-26204504D01*
X23692934Y-26185185D01*
X23390710Y-26127533D01*
X23098095Y-26032456D01*
X22819703Y-25901455D01*
X22559926Y-25736596D01*
X22322860Y-25540477D01*
X22112243Y-25316193D01*
X21931397Y-25067280D01*
X21783174Y-24797663D01*
X21669912Y-24511596D01*
X21593396Y-24213588D01*
X21554835Y-23908341D01*
X21554835Y-23600667D01*
X21593396Y-23295420D01*
X21669912Y-22997412D01*
X21783174Y-22711345D01*
X21931397Y-22441728D01*
X22112243Y-22192815D01*
X22322860Y-21968531D01*
X22559926Y-21772412D01*
X22819703Y-21607553D01*
X23098095Y-21476552D01*
X23390710Y-21381475D01*
X23692934Y-21323823D01*
X24000000Y-21304504D01*
X24045938Y-21307394D01*
X24045938Y-22000198D01*
X23786131Y-22012678D01*
X23531022Y-22063422D01*
X23286215Y-22151317D01*
X23057089Y-22274430D01*
X22848677Y-22430059D01*
X22665558Y-22614783D01*
X22511754Y-22824545D01*
X22390645Y-23054736D01*
X22304890Y-23300301D01*
X22256374Y-23555843D01*
X22246162Y-23815749D01*
X22274479Y-24074310D01*
X22340703Y-24325846D01*
X22443378Y-24564830D01*
X22580250Y-24786012D01*
X22748312Y-24984535D01*
X22943871Y-25156035D01*
X23162631Y-25296746D01*
X23399786Y-25403577D01*
X23650128Y-25474181D01*
X23908155Y-25507006D01*
X24000000Y-25509411D01*
X24259392Y-25490135D01*
X24513085Y-25432730D01*
X24755507Y-25338457D01*
X24981332Y-25209388D01*
X25185598Y-25048357D01*
X25363819Y-24858903D01*
X25512079Y-24645187D01*
X25627121Y-24411904D01*
X25706419Y-24164179D01*
X25748229Y-23907454D01*
X25751634Y-23647369D01*
X25716558Y-23389638D01*
X25643773Y-23139923D01*
X25534876Y-22903708D01*
X25392261Y-22686184D01*
X25219061Y-22492130D01*
X25019080Y-22325807D01*
X24796711Y-22190870D01*
X24556840Y-22090284D01*
X24304736Y-22026258D01*
X24045938Y-22000198D01*
X24045938Y-21307394D01*
X24307066Y-21323823D01*
X24609290Y-21381475D01*
X24901905Y-21476552D01*
X25180297Y-21607553D01*
X25440074Y-21772412D01*
X25677140Y-21968531D01*
X25887757Y-22192815D01*
X26068603Y-22441728D01*
X26216826Y-22711345D01*
X26330088Y-22997412D01*
X26406604Y-23295420D01*
X26445165Y-23600667D01*
X26445165Y-23908341D01*
X26406604Y-24213588D01*
G37*
G36*
X6406604Y-10713588D02*
G01*
X6330088Y-11011596D01*
X6216826Y-11297663D01*
X6068603Y-11567280D01*
X5887757Y-11816193D01*
X5677140Y-12040477D01*
X5440074Y-12236596D01*
X5180297Y-12401455D01*
X4901905Y-12532456D01*
X4609290Y-12627533D01*
X4307066Y-12685185D01*
X4000000Y-12704504D01*
X3692934Y-12685185D01*
X3390710Y-12627533D01*
X3098095Y-12532456D01*
X2819703Y-12401455D01*
X2559926Y-12236596D01*
X2322860Y-12040477D01*
X2112243Y-11816193D01*
X1931397Y-11567280D01*
X1783174Y-11297663D01*
X1669912Y-11011596D01*
X1593396Y-10713588D01*
X1554835Y-10408341D01*
X1554835Y-10100667D01*
X1593396Y-9795420D01*
X1669912Y-9497412D01*
X1783174Y-9211345D01*
X1931397Y-8941728D01*
X2112243Y-8692815D01*
X2322860Y-8468531D01*
X2559926Y-8272412D01*
X2819703Y-8107553D01*
X3098095Y-7976552D01*
X3390710Y-7881475D01*
X3692934Y-7823823D01*
X4000000Y-7804504D01*
X4045938Y-7807394D01*
X4045938Y-8500198D01*
X3786131Y-8512678D01*
X3531022Y-8563422D01*
X3286215Y-8651317D01*
X3057089Y-8774430D01*
X2848677Y-8930059D01*
X2665558Y-9114783D01*
X2511754Y-9324545D01*
X2390645Y-9554736D01*
X2304890Y-9800301D01*
X2256374Y-10055843D01*
X2246162Y-10315749D01*
X2274479Y-10574310D01*
X2340703Y-10825846D01*
X2443378Y-11064830D01*
X2580250Y-11286012D01*
X2748312Y-11484535D01*
X2943871Y-11656035D01*
X3162631Y-11796746D01*
X3399786Y-11903577D01*
X3650128Y-11974181D01*
X3908155Y-12007006D01*
X4000000Y-12009411D01*
X4259392Y-11990135D01*
X4513085Y-11932730D01*
X4755507Y-11838457D01*
X4981332Y-11709388D01*
X5185598Y-11548357D01*
X5363819Y-11358903D01*
X5512079Y-11145187D01*
X5627121Y-10911904D01*
X5706419Y-10664179D01*
X5748229Y-10407454D01*
X5751634Y-10147369D01*
X5716558Y-9889638D01*
X5643773Y-9639923D01*
X5534876Y-9403708D01*
X5392261Y-9186184D01*
X5219061Y-8992130D01*
X5019080Y-8825807D01*
X4796711Y-8690870D01*
X4556840Y-8590284D01*
X4304736Y-8526258D01*
X4045938Y-8500198D01*
X4045938Y-7807394D01*
X4307066Y-7823823D01*
X4609290Y-7881475D01*
X4901905Y-7976552D01*
X5180297Y-8107553D01*
X5440074Y-8272412D01*
X5677140Y-8468531D01*
X5887757Y-8692815D01*
X6068603Y-8941728D01*
X6216826Y-9211345D01*
X6330088Y-9497412D01*
X6406604Y-9795420D01*
X6445165Y-10100667D01*
X6445165Y-10408341D01*
X6406604Y-10713588D01*
G37*
G36*
X9906604Y-24213588D02*
G01*
X9830088Y-24511596D01*
X9716826Y-24797663D01*
X9568603Y-25067280D01*
X9387757Y-25316193D01*
X9177140Y-25540477D01*
X8940074Y-25736596D01*
X8680297Y-25901455D01*
X8401905Y-26032456D01*
X8109290Y-26127533D01*
X7807066Y-26185185D01*
X7500000Y-26204504D01*
X7192934Y-26185185D01*
X6890710Y-26127533D01*
X6598095Y-26032456D01*
X6319703Y-25901455D01*
X6059926Y-25736596D01*
X5822860Y-25540477D01*
X5612243Y-25316193D01*
X5431397Y-25067280D01*
X5283174Y-24797663D01*
X5169912Y-24511596D01*
X5093396Y-24213588D01*
X5054835Y-23908341D01*
X5054835Y-23600667D01*
X5093396Y-23295420D01*
X5169912Y-22997412D01*
X5283174Y-22711345D01*
X5431397Y-22441728D01*
X5612243Y-22192815D01*
X5822860Y-21968531D01*
X6059926Y-21772412D01*
X6319703Y-21607553D01*
X6598095Y-21476552D01*
X6890710Y-21381475D01*
X7192934Y-21323823D01*
X7500000Y-21304504D01*
X7545938Y-21307394D01*
X7545938Y-22000198D01*
X7286131Y-22012678D01*
X7031022Y-22063422D01*
X6786215Y-22151317D01*
X6557089Y-22274430D01*
X6348677Y-22430059D01*
X6165558Y-22614783D01*
X6011754Y-22824545D01*
X5890645Y-23054736D01*
X5804890Y-23300301D01*
X5756374Y-23555843D01*
X5746162Y-23815749D01*
X5774479Y-24074310D01*
X5840703Y-24325846D01*
X5943378Y-24564830D01*
X6080250Y-24786012D01*
X6248312Y-24984535D01*
X6443871Y-25156035D01*
X6662631Y-25296746D01*
X6899786Y-25403577D01*
X7150128Y-25474181D01*
X7408155Y-25507006D01*
X7500000Y-25509411D01*
X7759392Y-25490135D01*
X8013085Y-25432730D01*
X8255507Y-25338457D01*
X8481332Y-25209388D01*
X8685598Y-25048357D01*
X8863819Y-24858903D01*
X9012079Y-24645187D01*
X9127121Y-24411904D01*
X9206419Y-24164179D01*
X9248229Y-23907454D01*
X9251634Y-23647369D01*
X9216558Y-23389638D01*
X9143773Y-23139923D01*
X9034876Y-22903708D01*
X8892261Y-22686184D01*
X8719061Y-22492130D01*
X8519080Y-22325807D01*
X8296711Y-22190870D01*
X8056840Y-22090284D01*
X7804736Y-22026258D01*
X7545938Y-22000198D01*
X7545938Y-21307394D01*
X7807066Y-21323823D01*
X8109290Y-21381475D01*
X8401905Y-21476552D01*
X8680297Y-21607553D01*
X8940074Y-21772412D01*
X9177140Y-21968531D01*
X9387757Y-22192815D01*
X9568603Y-22441728D01*
X9716826Y-22711345D01*
X9830088Y-22997412D01*
X9906604Y-23295420D01*
X9945165Y-23600667D01*
X9945165Y-23908341D01*
X9906604Y-24213588D01*
G37*
M02*
