M48
; DRILL file {KiCad 6.0.11-2627ca5db0~126~ubuntu22.04.1} date Ne 14. ledna 2024, 00:37:27
; FORMAT={-:-/ absolute / inch / decimal}
; #@! TF.CreationDate,2024-01-14T00:37:27+01:00
; #@! TF.GenerationSoftware,Kicad,Pcbnew,6.0.11-2627ca5db0~126~ubuntu22.04.1
; #@! TF.FileFunction,Plated,1,2,PTH
FMAT,2
INCH
; #@! TA.AperFunction,Plated,PTH,ViaDrill
T1C0.0157
; #@! TA.AperFunction,Plated,PTH,ComponentDrill
T2C0.0300
%
G90
G05
T1
X2.0236Y-2.4449
X2.0413Y-1.748
X2.2047Y-1.4213
X2.2933Y-2.2441
X2.3543Y-1.9931
X2.3583Y-1.7362
X2.5456Y-1.4458
X2.5669Y-2.5472
X2.5669Y-2.689
X2.5709Y-1.7362
X2.8189Y-2.0079
X2.9921Y-2.2608
X2.9936Y-1.2948
X3.0354Y-1.7362
X3.0354Y-2.2598
X3.0433Y-1.2943
X3.0433Y-1.378
X3.065Y-1.4498
X3.1102Y-2.3736
X3.1112Y-1.4193
X3.1407Y-1.7441
X3.1732Y-1.9803
X3.2165Y-1.7677
X3.2205Y-2.5197
X3.252Y-1.9803
X3.4222Y-1.2667
X3.4291Y-1.9803
X3.498Y-1.2972
X3.501Y-1.7136
X3.5547Y-1.2406
X3.5662Y-1.4782
X3.5933Y-1.2482
X3.6416Y-1.248
X3.6447Y-1.441
X3.6535Y-1.9803
X3.7323Y-1.7008
X3.7362Y-1.2451
X3.8004Y-1.441
X3.8421Y-1.4419
X3.8661Y-1.9803
X3.8661Y-2.5197
X3.8908Y-1.3298
X3.9799Y-1.4724
X4.0029Y-1.4331
X4.0276Y-1.9882
X4.0315Y-1.2923
X4.0394Y-2.374
X4.1024Y-1.9449
X4.1033Y-1.7234
X4.1467Y-1.4626
X4.1535Y-1.2795
X4.1654Y-2.374
X4.2047Y-1.4646
T2
X2.1063Y-1.5846
X2.2441Y-1.8602
X2.2441Y-2.1161
X2.2441Y-2.372
X2.3228Y-1.5846
X2.3622Y-2.6083
X2.4606Y-1.8602
X2.4606Y-2.1161
X2.4606Y-2.372
X2.5394Y-1.5846
X2.6762Y-2.1161
X2.6772Y-2.372
X2.6775Y-1.8602
X2.7559Y-1.5846
X2.7953Y-2.6083
X2.8937Y-1.8602
X2.8937Y-2.1161
X2.8937Y-2.372
X2.9724Y-1.5846
X3.1102Y-1.8602
X3.1102Y-2.1161
X3.1102Y-2.6083
X3.1905Y-1.5846
X3.3268Y-1.8602
X3.3268Y-2.1161
X3.3268Y-2.6083
X3.4055Y-1.5846
X3.5433Y-1.8602
X3.5433Y-2.1161
X3.5433Y-2.372
X3.5433Y-2.6083
X3.622Y-1.5846
X3.7598Y-1.8602
X3.7598Y-2.1161
X3.7598Y-2.6083
X3.8386Y-1.5846
X3.8583Y-2.372
X3.9764Y-1.8602
X3.9764Y-2.1161
X3.9764Y-2.6083
X4.0551Y-1.5846
T0
M30
