%TF.GenerationSoftware,KiCad,Pcbnew,6.0.11-2627ca5db0~126~ubuntu22.04.1*%
%TF.CreationDate,2024-01-14T00:56:42+01:00*%
%TF.ProjectId,sda_trie_kbd,7364615f-7472-4696-955f-6b62642e6b69,rev?*%
%TF.SameCoordinates,PX2f34f60PY1c9b1e8*%
%TF.FileFunction,Paste,Bot*%
%TF.FilePolarity,Positive*%
%FSLAX46Y46*%
G04 Gerber Fmt 4.6, Leading zero omitted, Abs format (unit mm)*
G04 Created by KiCad (PCBNEW 6.0.11-2627ca5db0~126~ubuntu22.04.1) date 2024-01-14 00:56:42*
%MOMM*%
%LPD*%
G01*
G04 APERTURE LIST*
%ADD10R,2.300000X3.100000*%
%ADD11R,0.300000X1.100000*%
G04 APERTURE END LIST*
G36*
G01*
X56250000Y-16904504D02*
X55950000Y-16904504D01*
G75*
G02*
X55800000Y-16754504I0J150000D01*
G01*
X55800000Y-15579504D01*
G75*
G02*
X55950000Y-15429504I150000J0D01*
G01*
X56250000Y-15429504D01*
G75*
G02*
X56400000Y-15579504I0J-150000D01*
G01*
X56400000Y-16754504D01*
G75*
G02*
X56250000Y-16904504I-150000J0D01*
G01*
G37*
G36*
G01*
X55300000Y-18779504D02*
X55000000Y-18779504D01*
G75*
G02*
X54850000Y-18629504I0J150000D01*
G01*
X54850000Y-17454504D01*
G75*
G02*
X55000000Y-17304504I150000J0D01*
G01*
X55300000Y-17304504D01*
G75*
G02*
X55450000Y-17454504I0J-150000D01*
G01*
X55450000Y-18629504D01*
G75*
G02*
X55300000Y-18779504I-150000J0D01*
G01*
G37*
G36*
G01*
X57200000Y-18779504D02*
X56900000Y-18779504D01*
G75*
G02*
X56750000Y-18629504I0J150000D01*
G01*
X56750000Y-17454504D01*
G75*
G02*
X56900000Y-17304504I150000J0D01*
G01*
X57200000Y-17304504D01*
G75*
G02*
X57350000Y-17454504I0J-150000D01*
G01*
X57350000Y-18629504D01*
G75*
G02*
X57200000Y-18779504I-150000J0D01*
G01*
G37*
D10*
X37999400Y-6104704D03*
X49839400Y-6104704D03*
D11*
X39669400Y-4404704D03*
X40169400Y-4404704D03*
X40669400Y-4404704D03*
X41169400Y-4404704D03*
X41669400Y-4404704D03*
X42169400Y-4404704D03*
X42669400Y-4404704D03*
X43169400Y-4404704D03*
X43669400Y-4404704D03*
X44169400Y-4404704D03*
X44669400Y-4404704D03*
X45169400Y-4404704D03*
X45669400Y-4404704D03*
X46169400Y-4404704D03*
X46669400Y-4404704D03*
X47169400Y-4404704D03*
X47669400Y-4404704D03*
X48169400Y-4404704D03*
G36*
G01*
X2850000Y-17004504D02*
X2550000Y-17004504D01*
G75*
G02*
X2400000Y-16854504I0J150000D01*
G01*
X2400000Y-15679504D01*
G75*
G02*
X2550000Y-15529504I150000J0D01*
G01*
X2850000Y-15529504D01*
G75*
G02*
X3000000Y-15679504I0J-150000D01*
G01*
X3000000Y-16854504D01*
G75*
G02*
X2850000Y-17004504I-150000J0D01*
G01*
G37*
G36*
G01*
X1900000Y-18879504D02*
X1600000Y-18879504D01*
G75*
G02*
X1450000Y-18729504I0J150000D01*
G01*
X1450000Y-17554504D01*
G75*
G02*
X1600000Y-17404504I150000J0D01*
G01*
X1900000Y-17404504D01*
G75*
G02*
X2050000Y-17554504I0J-150000D01*
G01*
X2050000Y-18729504D01*
G75*
G02*
X1900000Y-18879504I-150000J0D01*
G01*
G37*
G36*
G01*
X3800000Y-18879504D02*
X3500000Y-18879504D01*
G75*
G02*
X3350000Y-18729504I0J150000D01*
G01*
X3350000Y-17554504D01*
G75*
G02*
X3500000Y-17404504I150000J0D01*
G01*
X3800000Y-17404504D01*
G75*
G02*
X3950000Y-17554504I0J-150000D01*
G01*
X3950000Y-18729504D01*
G75*
G02*
X3800000Y-18879504I-150000J0D01*
G01*
G37*
M02*
